<?xml version="1.0" encoding="UTF-8"?>
<svg id="Layer_2" data-name="Layer 2" xmlns="http://www.w3.org/2000/svg" viewBox="0 0 127 127">
  <g id="Layer_1-2" data-name="Layer 1">
    <g>
      <g>
        <circle cx="63.5" cy="63.5" r="62.58" transform="translate(-13.19 16.78) rotate(-13.65)" style="fill: #fff; stroke-width: 0px;"/>
        <path d="m63.5,0C28.49,0,0,28.49,0,63.5s28.49,63.5,63.5,63.5,63.5-28.49,63.5-63.5S98.51,0,63.5,0Z" style="stroke-width: 0px;"/>
      </g>
      <g>
        <circle cx="63.5" cy="63.5" r="28.83" style="fill: #fff; stroke-width: 0px;"/>
        <path d="m63.5,33.75c-16.4,0-29.75,13.34-29.75,29.75s13.34,29.75,29.75,29.75,29.75-13.34,29.75-29.75-13.34-29.75-29.75-29.75Zm0,57.66c-15.39,0-27.92-12.52-27.92-27.92s12.52-27.92,27.92-27.92,27.92,12.52,27.92,27.92-12.52,27.92-27.92,27.92Z" style="stroke-width: 0px;"/>
      </g>
      <g>
        <circle cx="63.5" cy="63.5" r="22.97" transform="translate(-13 16.46) rotate(-13.42)" style="fill: #fff; stroke-width: 0px;"/>
        <path d="m63.5,39.61c-13.17,0-23.89,10.72-23.89,23.89s10.72,23.89,23.89,23.89,23.89-10.72,23.89-23.89-10.72-23.89-23.89-23.89Zm0,45.94c-12.16,0-22.06-9.89-22.06-22.06s9.89-22.06,22.06-22.06,22.06,9.89,22.06,22.06-9.89,22.06-22.06,22.06Z" style="stroke-width: 0px;"/>
      </g>
      <path d="m63.5,53.21c-5.67,0-10.29,4.62-10.29,10.29s4.62,10.29,10.29,10.29,10.29-4.62,10.29-10.29-4.62-10.29-10.29-10.29Z" style="stroke-width: 0px;"/>
      <g>
        <path d="m88.01,25.85h-.01s.09.05.14.09l-.13-.09Z" style="stroke-width: 0px;"/>
        <path d="m37.86,100.13h.01s-.1-.06-.14-.09l.13.09Z" style="stroke-width: 0px;"/>
      </g>
      <path d="m53.48,47.24c-1.65,0-2.99,1.34-2.99,2.99s1.34,2.99,2.99,2.99,2.99-1.34,2.99-2.99-1.34-2.99-2.99-2.99Z" style="stroke-width: 0px;"/>
      <path d="m48.29,62.97c-1.43-.83-3.26-.34-4.08,1.09-.83,1.43-.34,3.26,1.09,4.08,1.43.83,3.26.34,4.08-1.09s.34-3.26-1.09-4.08Z" style="stroke-width: 0px;"/>
      <path d="m55.24,76.41c-1.43.83-1.92,2.65-1.09,4.08.83,1.43,2.65,1.92,4.08,1.09,1.43-.83,1.92-2.65,1.09-4.08-.83-1.43-2.65-1.92-4.08-1.09Z" style="stroke-width: 0px;"/>
      <path d="m73.34,74.14c-1.65,0-2.99,1.34-2.99,2.99s1.34,2.99,2.99,2.99,2.99-1.34,2.99-2.99-1.34-2.99-2.99-2.99Z" style="stroke-width: 0px;"/>
      <path d="m81.52,59.21c-1.43-.83-3.26-.34-4.08,1.09-.83,1.43-.34,3.26,1.09,4.08,1.43.83,3.26.34,4.08-1.09.83-1.43.34-3.26-1.09-4.08Z" style="stroke-width: 0px;"/>
      <path d="m68.6,45.76c-1.43.83-1.92,2.65-1.09,4.08.83,1.43,2.65,1.92,4.08,1.09,1.43-.83,1.92-2.65,1.09-4.08-.83-1.43-2.65-1.92-4.08-1.09Z" style="stroke-width: 0px;"/>
    </g>
  </g>
</svg>