<?xml version="1.0" encoding="UTF-8"?>
<svg id="Layer_2" data-name="Layer 2" xmlns="http://www.w3.org/2000/svg" viewBox="0 0 320 320">
  <g id="Layer_1-2" data-name="Layer 1">
    <g>
      <g>
        <path d="m160,30.94c26.23,0,47.57,21.34,47.57,47.57v162.98c0,26.23-21.34,47.57-47.57,47.57s-47.57-21.34-47.57-47.57V78.51c0-26.23,21.34-47.57,47.57-47.57m0-4.44h0c-28.72,0-52.01,23.28-52.01,52.01v162.98c0,28.72,23.28,52.01,52.01,52.01h0c28.72,0,52.01-23.28,52.01-52.01V78.51c0-28.72-23.28-52.01-52.01-52.01h0Z" style="stroke-width: 0px;"/>
        <path d="m160,29.48c26.9,0,49.16,20.98,50.69,47.77,1.17,20.57,2.22,80.81,2.22,82.75s-1.04,62.18-2.22,82.75c-1.53,26.79-23.8,47.77-50.69,47.77s-49.16-20.98-50.69-47.77c-1.17-20.57-2.22-80.81-2.22-82.75s1.04-62.18,2.22-82.75c1.53-26.79,23.8-47.77,50.69-47.77m0-4.24h0c-29.46,0-53.28,23.04-54.92,51.77-1.19,20.79-2.23,80.89-2.23,82.99s1.04,62.2,2.23,82.99c1.64,28.72,25.46,51.77,54.92,51.77h0c29.46,0,53.28-23.04,54.92-51.77,1.19-20.79,2.23-80.89,2.23-82.99s-1.04-62.2-2.23-82.99c-1.64-28.72-25.46-51.77-54.92-51.77h0Z" style="stroke-width: 0px;"/>
        <path d="m160,28.01c27.6,0,50.74,20.61,53.83,47.94,2.33,20.65,4.43,79.29,4.43,84.04s-2.1,63.39-4.43,84.04c-3.08,27.33-26.23,47.94-53.83,47.94s-50.74-20.61-53.83-47.94c-2.33-20.65-4.43-79.29-4.43-84.04s2.1-63.39,4.43-84.04c3.08-27.33,26.23-47.94,53.83-47.94m0-4.04h0c-30.2,0-54.6,22.83-57.84,51.53-2.4,21.23-4.45,80.29-4.45,84.49s2.06,63.26,4.45,84.49c3.24,28.7,27.64,51.53,57.84,51.53h0c30.2,0,54.6-22.83,57.84-51.53,2.4-21.23,4.45-80.29,4.45-84.49s-2.06-63.26-4.45-84.49c-3.24-28.7-27.64-51.53-57.84-51.53h0Z" style="stroke-width: 0px;"/>
        <path d="m160,26.55c13.85,0,27.23,4.96,37.68,13.97,10.24,8.82,17.09,20.94,19.3,34.12,3.54,21.16,6.63,78.69,6.63,85.36s-3.08,64.2-6.63,85.36c-2.21,13.18-9.06,25.3-19.3,34.12-10.45,9.01-23.83,13.97-37.68,13.97s-27.23-4.96-37.68-13.97c-10.24-8.82-17.09-20.94-19.3-34.12-3.54-21.16-6.63-78.69-6.63-85.36s3.08-64.2,6.63-85.36c2.21-13.18,9.06-25.3,19.3-34.12,10.45-9.01,23.83-13.97,37.68-13.97m0-3.84h0c-30.94,0-55.96,22.63-60.76,51.29-3.63,21.69-6.68,79.69-6.68,86s3.05,64.31,6.68,86c4.8,28.66,29.82,51.29,60.76,51.29h0c30.94,0,55.96-22.63,60.76-51.29,3.63-21.69,6.68-79.69,6.68-86s-3.05-64.31-6.68-86c-4.8-28.66-29.82-51.29-60.76-51.29h0Z" style="stroke-width: 0px;"/>
        <path d="m160,25.09c14.43,0,27.93,4.83,39.04,13.97,10.66,8.77,18.15,20.92,21.08,34.23,4.75,21.52,8.82,77.84,8.82,86.71s-4.07,65.19-8.82,86.71c-2.94,13.31-10.42,25.46-21.08,34.23-11.11,9.14-24.61,13.97-39.04,13.97s-27.93-4.83-39.04-13.97c-10.66-8.77-18.15-20.92-21.08-34.23-4.75-21.52-8.82-77.84-8.82-86.71s4.07-65.19,8.82-86.71c2.94-13.31,10.42-25.46,21.08-34.23,11.11-9.14,24.61-13.97,39.04-13.97m0-3.64h0c-31.68,0-57.36,22.43-63.67,51.05-4.89,22.15-8.9,79.09-8.9,87.5s4.02,65.35,8.9,87.5c6.32,28.62,31.99,51.05,63.67,51.05h0c31.68,0,57.36-22.43,63.67-51.05,4.89-22.15,8.9-79.09,8.9-87.5s-4.02-65.35-8.9-87.5c-6.32-28.62-31.99-51.05-63.67-51.05h0Z" style="stroke-width: 0px;"/>
        <path d="m160,23.63c29.5,0,55.52,19.85,63.28,48.28,6.2,22.7,11.01,78.43,11.01,88.09s-4.81,65.39-11.01,88.09c-7.76,28.43-33.78,48.28-63.28,48.28s-55.52-19.85-63.28-48.28c-6.2-22.7-11.01-78.43-11.01-88.09s4.81-65.39,11.01-88.09c7.76-28.43,33.78-48.28,63.28-48.28m0-3.43h0c-32.42,0-58.8,22.25-66.59,50.81-6.17,22.62-11.13,78.49-11.13,89s4.96,66.38,11.13,89c7.79,28.56,34.17,50.81,66.59,50.81h0c32.42,0,58.8-22.25,66.59-50.81,6.17-22.62,11.13-78.49,11.13-89s-4.96-66.38-11.13-89c-7.79-28.56-34.17-50.81-66.59-50.81h0Z" style="stroke-width: 0px;"/>
        <path d="m160,22.16c15.2,0,29.64,4.82,41.78,13.94,11.52,8.66,20.27,20.87,24.65,34.39,7.2,22.23,13.2,76.14,13.2,89.5s-6,67.27-13.2,89.5c-4.38,13.52-13.14,25.73-24.65,34.39-12.14,9.12-26.58,13.94-41.78,13.94s-29.64-4.82-41.78-13.94c-11.52-8.66-20.27-20.87-24.65-34.39-7.2-22.23-13.2-76.14-13.2-89.5s6-67.27,13.2-89.5c4.38-13.52,13.14-25.73,24.65-34.39,12.14-9.12,26.58-13.94,41.78-13.94m0-3.23h0c-33.16,0-60.27,22.06-69.51,50.57-7.48,23.09-13.36,77.89-13.36,90.5s5.88,67.41,13.36,90.5c9.24,28.51,36.35,50.57,69.51,50.57h0c33.16,0,60.27-22.06,69.51-50.57,7.48-23.09,13.36-77.89,13.36-90.5s-5.88-67.41-13.36-90.5c-9.24-28.51-36.35-50.57-69.51-50.57h0Z" style="stroke-width: 0px;"/>
        <path d="m160,20.7c15.58,0,30.51,4.81,43.16,13.92,11.95,8.6,21.33,20.83,26.43,34.44,8.73,23.33,15.39,76.49,15.39,90.94s-6.66,67.61-15.39,90.94c-5.09,13.61-14.48,25.84-26.43,34.44-12.65,9.11-27.57,13.92-43.16,13.92s-30.51-4.81-43.16-13.92c-11.95-8.6-21.33-20.83-26.43-34.44-8.73-23.33-15.39-76.49-15.39-90.94s6.66-67.61,15.39-90.94c5.09-13.61,14.48-25.84,26.43-34.44,12.65-9.11,27.57-13.92,43.16-13.92m0-3.03h0c-33.9,0-61.77,21.86-72.42,50.33-8.81,23.55-15.58,77.29-15.58,92s6.77,68.45,15.58,92c10.65,28.47,38.53,50.33,72.42,50.33h0c33.9,0,61.77-21.86,72.42-50.33,8.81-23.55,15.58-77.29,15.58-92s-6.77-68.45-15.58-92c-10.65-28.47-38.53-50.33-72.42-50.33h0Z" style="stroke-width: 0px;"/>
        <path d="m160,19.24c15.97,0,31.37,4.8,44.53,13.88,12.56,8.67,22.32,20.59,28.2,34.48,9.98,23.57,17.58,75.43,17.58,92.4s-7.6,68.82-17.58,92.4c-5.88,13.89-15.63,25.81-28.2,34.48-13.16,9.08-28.56,13.88-44.53,13.88s-31.37-4.8-44.53-13.88c-12.56-8.67-22.32-20.59-28.2-34.48-9.98-23.57-17.58-75.43-17.58-92.4s7.6-68.82,17.58-92.4c5.88-13.89,15.63-25.81,28.2-34.48,13.16-9.08,28.56-13.88,44.53-13.88m0-2.83h0c-34.63,0-63.3,21.66-75.34,50.09-10.17,24.01-17.81,76.69-17.81,93.5s7.64,69.49,17.81,93.5c12.04,28.43,40.7,50.09,75.34,50.09h0c34.63,0,63.3-21.66,75.34-50.09,10.17-24.01,17.81-76.69,17.81-93.5s-7.64-69.49-17.81-93.5c-12.04-28.43-40.7-50.09-75.34-50.09h0Z" style="stroke-width: 0px;"/>
        <path d="m160,17.78c32.24,0,62.02,18.98,75.88,48.34,11.43,24.22,19.78,76.1,19.78,93.88s-8.35,69.66-19.78,93.88c-13.86,29.37-43.64,48.34-75.88,48.34s-62.02-18.98-75.88-48.34c-11.43-24.22-19.78-76.1-19.78-93.88s8.35-69.66,19.78-93.88c13.86-29.37,43.64-48.34,75.88-48.34m0-2.63h0c-35.37,0-64.85,21.45-78.26,49.85-11.54,24.46-20.04,76.09-20.04,95s8.49,70.54,20.04,95c13.4,28.4,42.88,49.85,78.26,49.85h0c35.37,0,64.85-21.45,78.26-49.85,11.54-24.46,20.04-76.09,20.04-95s-8.49-70.54-20.03-95c-13.4-28.4-42.88-49.85-78.26-49.85h0Z" style="stroke-width: 0px;"/>
        <path d="m160,16.31c16.75,0,33.11,4.77,47.29,13.78,13.46,8.56,24.43,20.49,31.72,34.52,12.55,24.15,21.99,74.52,21.99,95.39s-9.44,71.23-21.99,95.39c-7.29,14.03-18.26,25.97-31.72,34.52-14.19,9.02-30.54,13.78-47.29,13.78-16.75,0-33.11-4.77-47.29-13.78-13.46-8.56-24.43-20.49-31.72-34.52-12.55-24.15-21.99-74.52-21.99-95.39s9.44-71.23,21.99-95.39c7.29-14.03,18.26-25.97,31.72-34.52,14.19-9.02,30.54-13.78,47.29-13.78m0-2.43h0c-36.11,0-66.43,21.22-81.17,49.61-12.93,24.9-22.26,75.49-22.26,96.51s9.33,71.61,22.26,96.51c14.75,28.39,45.06,49.61,81.17,49.61h0c36.11,0,66.43-21.22,81.17-49.61,12.93-24.9,22.26-75.49,22.26-96.51s-9.33-71.61-22.26-96.51c-14.75-28.39-45.06-49.61-81.17-49.61h0Z" style="stroke-width: 0px;"/>
        <path d="m160,12.62v2.23c33.82,0,65.3,18.49,82.15,48.24,14.55,25.69,24.2,75.34,24.2,96.91s-9.65,71.22-24.2,96.91c-16.85,29.76-48.33,48.24-82.15,48.24-33.82,0-65.3-18.49-82.15-48.24-14.55-25.69-24.2-75.34-24.2-96.91s9.65-71.22,24.2-96.91c16.85-29.76,48.33-48.24,82.15-48.24v-2.23m0,0h0c-36.85,0-68.01,20.99-84.09,49.37-14.34,25.33-24.49,74.89-24.49,98.01s10.15,72.68,24.49,98.01c16.07,28.39,47.24,49.37,84.09,49.37h0c36.85,0,68.01-20.99,84.09-49.37,14.34-25.33,24.49-74.89,24.49-98.01s-10.15-72.68-24.49-98.01c-16.07-28.39-47.24-49.37-84.09-49.37h0Z" style="stroke-width: 0px;"/>
        <path d="m160,11.36v2.03c17.54,0,34.85,4.72,50.05,13.64,14.38,8.44,26.56,20.38,35.22,34.53,15.12,24.69,26.41,72.34,26.41,98.45s-11.3,73.76-26.41,98.45c-8.66,14.14-20.84,26.08-35.22,34.53-15.2,8.92-32.51,13.64-50.05,13.64-17.54,0-34.85-4.72-50.05-13.64-14.38-8.44-26.56-20.38-35.22-34.53-15.12-24.69-26.41-72.34-26.41-98.45s11.3-73.76,26.41-98.45c8.66-14.14,20.84-26.08,35.22-34.53,15.2-8.92,32.51-13.64,50.05-13.64v-2.03m0,0h0c-37.59,0-69.62,20.74-87,49.13-15.76,25.74-26.71,74.29-26.71,99.51s10.95,73.77,26.71,99.51c17.39,28.4,49.41,49.13,87,49.13h0c37.59,0,69.62-20.74,87-49.13,15.76-25.74,26.71-74.29,26.71-99.51s-10.95-73.77-26.71-99.51c-17.39-28.4-49.41-49.13-87-49.13h0Z" style="stroke-width: 0px;"/>
        <path d="m160,10.1v1.83c17.94,0,35.73,4.69,51.43,13.55,14.85,8.39,27.63,20.32,36.97,34.52,7.86,11.95,15.21,29.55,20.68,49.54,5.06,18.46,7.96,36.86,7.96,50.46s-2.9,32-7.96,50.46c-5.48,20-12.82,37.59-20.68,49.54-9.34,14.2-22.12,26.13-36.97,34.52-15.7,8.87-33.48,13.55-51.43,13.55s-35.73-4.69-51.43-13.55c-14.85-8.39-27.63-20.32-36.97-34.52-7.86-11.95-15.21-29.55-20.68-49.54-5.06-18.46-7.96-36.86-7.96-50.46s2.9-32,7.96-50.46c5.48-20,12.82-37.59,20.68-49.54,9.34-14.2,22.12-26.13,36.97-34.52,15.7-8.87,33.48-13.55,51.43-13.55v-1.83m0,0h0c-38.33,0-71.23,20.47-89.92,48.89-17.19,26.15-28.94,73.7-28.94,101.01s11.75,74.87,28.94,101.01c18.69,28.42,51.59,48.89,89.92,48.89h0c38.33,0,71.23-20.47,89.92-48.89,17.19-26.15,28.94-73.7,28.94-101.01s-11.75-74.87-28.94-101.01c-18.69-28.42-51.59-48.89-89.92-48.89h0Z" style="stroke-width: 0px;"/>
        <path d="m160,8.83v1.63c36.21,0,70.41,17.93,91.51,47.96,19.07,27.15,30.87,73.86,30.87,101.58s-11.8,74.43-30.87,101.58c-21.09,30.03-55.3,47.96-91.51,47.96s-70.41-17.93-91.51-47.96c-19.07-27.15-30.87-73.86-30.87-101.58s11.8-74.43,30.87-101.58c21.09-30.03,55.3-47.96,91.51-47.96v-1.63m0,0h0c-39.07,0-72.85,20.2-92.84,48.65-18.64,26.54-31.17,73.1-31.17,102.51s12.53,75.98,31.17,102.51c19.99,28.46,53.77,48.65,92.84,48.65h0c39.07,0,72.85-20.2,92.84-48.65,18.64-26.54,31.17-73.1,31.17-102.51s-12.53-75.98-31.17-102.51c-19.99-28.46-53.77-48.65-92.84-48.65h0Z" style="stroke-width: 0px;"/>
        <path d="m160,7.57v1.43c19.02,0,37.25,4.49,54.16,13.35,15.8,8.28,29.78,20.2,40.45,34.49,9.36,12.55,17.89,30.25,24.01,49.85,5.87,18.8,9.1,37.73,9.1,53.31s-3.23,34.51-9.1,53.31c-6.12,19.6-14.65,37.3-24.01,49.85-10.66,14.29-24.65,26.21-40.45,34.49-16.92,8.86-35.14,13.35-54.16,13.35-19.02,0-37.25-4.49-54.16-13.35-15.8-8.28-29.78-20.2-40.45-34.49-9.36-12.55-17.89-30.25-24.01-49.85-5.87-18.8-9.1-37.73-9.1-53.31s3.23-34.51,9.1-53.31c6.12-19.6,14.65-37.3,24.01-49.85,10.66-14.29,24.65-26.21,40.45-34.49,16.92-8.86,35.14-13.35,54.16-13.35v-1.43m0,0h0c-39.81,0-74.48,19.91-95.75,48.41-20.09,26.91-33.39,72.5-33.39,104.01s13.3,77.1,33.39,104.01c21.28,28.51,55.95,48.41,95.75,48.41h0c39.81,0,74.48-19.91,95.75-48.41,20.09-26.91,33.39-72.5,33.39-104.01s-13.31-77.1-33.39-104.01c-21.28-28.51-55.95-48.41-95.75-48.41h0Z" style="stroke-width: 0px;"/>
        <path d="m160,6.31v1.23c19.44,0,38.12,4.46,55.53,13.24,16.28,8.22,30.87,20.14,42.18,34.47,20.49,25.94,35.35,69.99,35.35,104.76s-14.87,78.82-35.35,104.76c-11.31,14.33-25.9,26.24-42.18,34.47-17.4,8.79-36.08,13.24-55.53,13.24s-38.12-4.46-55.53-13.24c-16.28-8.22-30.87-20.14-42.18-34.47-20.49-25.94-35.35-69.99-35.35-104.76s14.87-78.82,35.35-104.76c11.31-14.33,25.9-26.24,42.18-34.47,17.4-8.79,36.08-13.24,55.53-13.24v-1.23m0,0h0c-40.55,0-76.11,19.61-98.67,48.18-21.54,27.28-35.62,71.9-35.62,105.51s14.07,78.24,35.62,105.51c22.56,28.57,58.12,48.18,98.67,48.18h0c40.55,0,76.11-19.61,98.67-48.18,21.54-27.28,35.62-71.9,35.62-105.51s-14.07-78.24-35.62-105.51c-22.56-28.57-58.12-48.18-98.67-48.18h0Z" style="stroke-width: 0px;"/>
        <path d="m160,6.07c38.89,0,75.63,17.34,100.8,47.57,11.09,13.32,20.55,30.66,27.37,50.16,6.6,18.88,10.24,38.84,10.24,56.2s-3.64,37.32-10.24,56.2c-6.82,19.49-16.28,36.84-27.37,50.16-25.17,30.23-61.91,47.57-100.8,47.57s-75.63-17.34-100.8-47.57c-11.09-13.32-20.55-30.66-27.37-50.16-6.6-18.88-10.24-38.84-10.24-56.2s3.64-37.32,10.24-56.2c6.82-19.49,16.28-36.84,27.37-50.16C84.37,23.41,121.11,6.07,160,6.07m0-1.03h0c-41.29,0-77.74,19.3-101.59,47.94-23.01,27.63-37.84,71.3-37.84,107.02s14.84,79.38,37.84,107.02c23.84,28.64,60.3,47.94,101.59,47.94h0c41.29,0,77.74-19.3,101.59-47.94,23.01-27.63,37.84-71.3,37.84-107.02s-14.84-79.38-37.84-107.02c-23.84-28.64-60.3-47.94-101.59-47.94h0Z" style="stroke-width: 0px;"/>
        <path d="m160,3.79v.82c39.66,0,77.52,17.28,103.88,47.41,24.22,27.68,39.87,70.07,39.87,107.98s-15.65,80.29-39.87,107.98c-26.36,30.13-64.22,47.41-103.88,47.41s-77.52-17.28-103.88-47.41c-24.22-27.68-39.87-70.07-39.87-107.98s15.65-80.29,39.87-107.98C82.48,21.89,120.34,4.61,160,4.61v-.82m0,0h0c-42.02,0-79.38,18.98-104.5,47.7C31.03,79.46,15.43,122.18,15.43,160s15.6,80.54,40.07,108.52c25.12,28.72,62.48,47.7,104.5,47.7h0c42.02,0,79.38-18.98,104.5-47.7,24.47-27.98,40.07-70.7,40.07-108.52s-15.6-80.54-40.07-108.52C239.38,22.76,202.02,3.79,160,3.79h0Z" style="stroke-width: 0px;"/>
        <path d="m160,2.52v.62c20.72,0,40.77,4.33,59.59,12.87,18.02,8.18,33.95,19.74,47.37,34.39,25.99,28.36,42.13,70.35,42.13,109.6s-16.14,81.24-42.13,109.6c-13.42,14.64-29.36,26.21-47.37,34.39-18.82,8.54-38.86,12.87-59.59,12.87s-40.77-4.33-59.59-12.87c-18.02-8.18-33.95-19.74-47.37-34.39-25.99-28.36-42.13-70.35-42.13-109.6S27.05,78.76,53.04,50.4c13.42-14.64,29.36-26.21,47.37-34.39,18.82-8.54,38.86-12.87,59.59-12.87v-.62m0,0h0c-42.76,0-81.02,18.64-107.42,47.46C26.64,78.29,10.28,120.08,10.28,160s16.35,81.71,42.3,110.02c26.4,28.81,64.66,47.46,107.42,47.46h0c42.76,0,81.02-18.64,107.42-47.46,25.94-28.31,42.3-70.1,42.3-110.02s-16.35-81.71-42.3-110.02C241.02,21.17,202.76,2.52,160,2.52h0Z" style="stroke-width: 0px;"/>
        <path d="m160,1.26v.42c21.16,0,41.66,4.28,60.93,12.73,18.53,8.12,35.05,19.68,49.1,34.36,13.58,14.18,24.8,31.68,32.45,50.6,7.82,19.33,11.95,40.29,11.95,60.62s-4.13,41.29-11.95,60.62c-7.65,18.92-18.88,36.42-32.45,50.6-14.05,14.68-30.57,26.23-49.1,34.36-19.27,8.45-39.77,12.73-60.93,12.73-21.16,0-41.66-4.28-60.93-12.73-18.53-8.12-35.05-19.68-49.1-34.36-13.58-14.18-24.8-31.68-32.45-50.6-7.82-19.33-11.95-40.29-11.95-60.62s4.13-41.29,11.95-60.62c7.65-18.92,18.88-36.42,32.45-50.6,14.05-14.68,30.57-26.23,49.1-34.36C118.34,5.97,138.84,1.68,160,1.68v-.42m0,0h0c-43.5,0-82.65,18.3-110.34,47.22C22.25,77.11,5.14,117.98,5.14,160s17.11,82.89,44.52,111.52c27.68,28.91,66.83,47.22,110.34,47.22h0c43.5,0,82.65-18.3,110.34-47.22,27.41-28.63,44.52-69.5,44.52-111.52s-17.11-82.89-44.52-111.52C242.65,19.57,203.5,1.26,160,1.26h0Z" style="stroke-width: 0px;"/>
        <path d="m160,.22c42.68,0,82.8,16.62,112.98,46.8,30.18,30.18,46.8,70.3,46.8,112.98s-16.62,82.8-46.8,112.98c-30.18,30.18-70.3,46.8-112.98,46.8s-82.8-16.62-112.98-46.8C16.84,242.8.22,202.68.22,160S16.84,77.2,47.02,47.02C77.2,16.84,117.32.22,160,.22m0-.22C71.63,0,0,71.63,0,160s71.63,160,160,160,160-71.63,160-160S248.37,0,160,0h0Z" style="stroke-width: 0px;"/>
      </g>
      <path d="m207.18,174.73c0,24.42-22.56,39.53-49.22,39.53-4.85,0-9.32-.37-13.61-1.31-.93,1.49-1.49,2.98-1.49,4.85,0,4.85,3.54,9.51,19.02,12.49l27.59,5.03h0c19.2,3.73,27.22,13.05,27.22,26.66,0,22.75-23.12,41.58-59.29,41.58-28.71,0-49.59-11.56-49.59-29.08,0-15.29,13.61-25.36,29.46-29.64-8.76-4.47-13.8-11.37-13.8-19.95,0-6.9,3.36-12.49,8.58-16.59-12.31-6.34-19.76-17.53-19.76-31.51,0-24.42,22.56-39.53,49.22-39.53s45.68,13.27,45.68,37.47Zm-12.12,91.73c0-5.22-3.54-9.14-17.15-11.75l-21.44-4.1c-14.73,2.98-27.22,10.07-27.22,18.83s13.61,15.66,31.51,15.66c20.14,0,34.31-8.2,34.31-18.64h0Zm-57.38-90.33c0,10.29,9.62,17.15,21.49,17.15s22.61-7.33,22.61-17.93-9.62-17.31-21.33-17.31-22.77,7.33-22.77,18.09h0Z" style="stroke-width: 0px;"/>
      <path d="m183.71,89.18c-.15-19.46-9.44-34.18-23.44-34.05-15.33.15-24.16,17.59-24.02,36.4.15,19.46,9.29,33.89,23.29,33.75,15.18-.15,24.31-17.3,24.17-36.11Z" style="stroke-width: 0px;"/>
      <rect x="112.02" y="30.78" width="95.48" height="259.16" rx="47.74" ry="47.74" style="fill: none; stroke: #000; stroke-linecap: round; stroke-miterlimit: 10; stroke-width: 3.11px;"/>
    </g>
  </g>
</svg>