<?xml version="1.0" encoding="utf-8"?>
<!-- Generator: Adobe Illustrator 27.9.1, SVG Export Plug-In . SVG Version: 6.00 Build 0)  -->
<svg version="1.1" id="Layer_2_00000093864618022958387790000003391723006138274469_"
	 xmlns="http://www.w3.org/2000/svg" xmlns:xlink="http://www.w3.org/1999/xlink" x="0px" y="0px" viewBox="0 0 400.6 83.7"
	 style="enable-background:new 0 0 400.6 83.7;" xml:space="preserve">
<style type="text/css">
	.st0{fill:#1D1D1B;}
</style>
<g id="Layer_1-2">
	<g>
		<path class="st0" d="M371,68.3h2.4v6.8c0,1.8,1,3.2,3.1,3.2c1.1,0,2.2-0.7,2.2-0.7l-0.5-1.1c0,0-0.8,0.5-1.6,0.5
			c-1.5,0-1.9-1-1.9-2.3v-6.6h3.7v-1.2h-3.7v-3.5h-1.2v3.5H371L371,68.3L371,68.3z M367,66.9c-2.3,0-3.2,2.1-3.2,2.1v-1.8h-1.1v10.9
			h1.2v-7.9c0,0,0.9-2.1,2.8-2.1c1,0,1.5,0.3,1.5,0.3l0.5-1.2C368.7,67.2,368.1,66.9,367,66.9 M353.2,77.2c-2.7,0-4.3-2.1-4.3-4.5
			s1.5-4.5,4.3-4.5s4.3,2.1,4.3,4.5S355.9,77.2,353.2,77.2 M353.2,66.9c-3.3,0-5.6,2.6-5.6,5.8s2.3,5.8,5.6,5.8s5.6-2.6,5.6-5.8
			S356.4,66.9,353.2,66.9 M335.2,70.7c0,0,1.2-2.5,3.9-2.5c2.5,0,4.1,2,4.1,4.5s-1.7,4.5-4.1,4.5c-2.8,0-3.9-2.5-3.9-2.5V70.7
			L335.2,70.7z M333.9,67.2v16.5h1.2v-7.3c0.3,0.4,1.5,2.1,4,2.1c3,0,5.4-2.3,5.4-5.8s-2.4-5.8-5.4-5.8c-2.8,0-4.1,2.3-4.1,2.3v-2
			L333.9,67.2L333.9,67.2z M328.1,73.9c0,2-1.7,3.3-3.8,3.3c-3,0-4.1-2.9-4.1-2.9l-1.1,0.7c0,0,1.5,3.4,5.2,3.4c2.8,0,5-1.8,5-4.5
			c0-2.3-1.4-3.6-4-4.7c-2.4-1.1-4.3-2-4.3-4c0-1.7,1.3-3,3.5-3c2.4,0,3.6,1.9,3.6,1.9l1-0.7c0,0-1.6-2.4-4.6-2.4s-4.7,2.3-4.7,4.2
			c0,2.5,2,3.8,4.5,4.9C326.3,71,328.1,71.8,328.1,73.9 M305.2,74.6c0,0-1.2,2.5-3.9,2.5c-2.5,0-4.1-2-4.1-4.5s1.7-4.5,4.1-4.5
			c2.8,0,3.9,2.5,3.9,2.5V74.6L305.2,74.6z M306.4,78.1V60h-1.2V69c-0.3-0.4-1.6-2.1-4-2.1c-3,0-5.5,2.3-5.5,5.8s2.4,5.8,5.5,5.8
			c2.8,0,4.1-2.3,4.1-2.3v2L306.4,78.1L306.4,78.1z M287.7,66.9c-2.7,0-3.7,2.3-3.7,2.3v-2h-1.1v10.9h1.2v-7.6c0,0,1-2.4,3.4-2.4
			c1.8,0,3.1,1,3.1,3.2v6.8h1.2v-7C291.8,68.2,289.8,66.9,287.7,66.9 M273.1,78.4c2.7,0,3.7-2.2,3.7-2.2v1.9h1.1V67.2h-1.2v7.6
			c0,0-1,2.4-3.4,2.4c-1.8,0-3.1-1-3.1-3.2v-6.8H269v7C269,77.1,271,78.4,273.1,78.4 M249.6,68.3h2.4v6.8c0,1.8,1,3.2,3.1,3.2
			c1.1,0,2.2-0.7,2.2-0.7l-0.5-1.1c0,0-0.8,0.5-1.6,0.5c-1.5,0-1.9-1-1.9-2.3v-6.6h3.7v-1.2h-3.7v-3.5H252v3.5h-2.4L249.6,68.3
			L249.6,68.3z M237.7,76.1c0,0,1.4,2.3,4.7,2.3c2.1,0,4.1-1.1,4.1-3.1c0-2-1.6-2.7-3.7-3.1c-1.9-0.4-3.3-0.8-3.3-2.1
			c0-1.1,1.1-1.9,2.6-1.9c2,0,3.1,1.2,3.1,1.2l0.8-0.9c0,0-1.3-1.5-3.9-1.5c-2.4,0-3.9,1.5-3.9,3.1c0,1.8,1.5,2.7,3.9,3.3
			c1.7,0.4,3.1,0.8,3.1,2c0,1.4-1.7,1.9-2.9,1.9c-2.6,0-3.7-1.9-3.7-1.9L237.7,76.1L237.7,76.1z M229.5,66.9c-2.7,0-3.7,2.3-3.7,2.3
			v-2h-1.1v10.9h1.2v-7.6c0,0,1-2.4,3.4-2.4c1.8,0,3.1,1,3.1,3.2v6.8h1.2v-7C233.6,68.2,231.5,66.9,229.5,66.9 M211.2,72
			c0.1-1.2,1.1-3.9,4.1-3.9c2.9,0,4,2.6,4,3.9H211.2z M215.3,66.9c-3.3,0-5.4,2.7-5.4,5.8s2.4,5.8,5.6,5.8c1.8,0,3.5-1,4.6-2.2
			l-0.8-0.9c-0.7,0.9-2.1,1.9-3.7,1.9c-2.9,0-4.3-2.4-4.4-4h9.4c0-0.3,0-0.3,0-0.5C220.6,69.3,218.2,66.9,215.3,66.9 M204,63.6
			c0,0.5,0.4,1,1,1s1-0.4,1-1s-0.4-1-1-1S204,63.1,204,63.6 M204.4,78.1h1.2V67.2h-1.2V78.1z M188.2,77V62.5h3.1
			c4.4,0,7.2,2.9,7.2,7.2s-2.8,7.2-7.2,7.2H188.2z M186.9,61.3v16.8h4.6c4.9,0,8.3-3.6,8.3-8.4s-3.5-8.4-8.3-8.4H186.9z M174.7,66.9
			c-2.3,0-3.2,2.1-3.2,2.1v-1.8h-1.1v10.9h1.2v-7.9c0,0,0.9-2.1,2.8-2.1c1,0,1.5,0.3,1.5,0.3l0.5-1.2
			C176.4,67.2,175.7,66.9,174.7,66.9 M157,72c0.1-1.2,1.1-3.9,4.1-3.9c2.9,0,4,2.6,4,3.9H157z M161.1,66.9c-3.3,0-5.4,2.7-5.4,5.8
			s2.4,5.8,5.6,5.8c1.8,0,3.5-1,4.6-2.2l-0.8-0.9c-0.7,0.9-2.1,1.9-3.7,1.9c-2.9,0-4.3-2.4-4.4-4h9.4c0-0.3,0-0.3,0-0.5
			C166.4,69.3,164,66.9,161.1,66.9 M144,69v-9h-1.2v18.1h1.2v-7.6c0,0,1-2.4,3.4-2.4c1.8,0,3.1,1,3.1,3.2v6.8h1.2v-7
			c0-3-2.1-4.2-4.1-4.2C145.1,66.9,144,69,144,69 M134.1,77.2c-2.6,0-4.3-2.1-4.3-4.5s1.7-4.5,4.3-4.5c2.3,0,3.5,1.6,3.5,1.6
			l0.9-0.8c0,0-1.5-2.1-4.4-2.1c-3.3,0-5.6,2.6-5.6,5.8s2.4,5.8,5.6,5.8c3,0,4.5-2.2,4.5-2.2l-0.9-0.8
			C137.8,75.4,136.6,77.2,134.1,77.2 M122.6,63.6c0,0.5,0.4,1,1,1s1-0.4,1-1s-0.4-1-1-1S122.6,63.1,122.6,63.6 M123,78.1h1.2V67.2
			H123V78.1z M116.1,78.1h1.2V60h-1.2L116.1,78.1z M104.2,68.3h2.4v6.8c0,1.8,1,3.2,3.1,3.2c1.1,0,2.2-0.7,2.2-0.7l-0.5-1.1
			c0,0-0.8,0.5-1.6,0.5c-1.5,0-1.9-1-1.9-2.3v-6.6h3.7v-1.2h-3.7v-3.5h-1.2v3.5h-2.4L104.2,68.3L104.2,68.3z M96.2,66.9
			c-2.7,0-3.7,2.3-3.7,2.3v-2h-1.1v10.9h1.2v-7.6c0,0,1-2.4,3.4-2.4c1.8,0,3.1,1,3.1,3.2v6.8h1.2v-7C100.3,68.2,98.2,66.9,96.2,66.9
			 M77.9,72c0.1-1.2,1.1-3.9,4.1-3.9c2.9,0,4,2.6,4,3.9H77.9z M82,66.9c-3.3,0-5.4,2.7-5.4,5.8s2.3,5.8,5.6,5.8c1.8,0,3.5-1,4.6-2.2
			L86,75.3c-0.7,0.9-2.1,1.9-3.7,1.9c-2.9,0-4.3-2.4-4.4-4h9.4c0-0.3,0-0.3,0-0.5C87.3,69.3,84.9,66.9,82,66.9 M67.4,68.4h2.3v9.8
			H71v-9.8h2.9v-1.2H71v-4c0-1.3,0.5-2.3,1.9-2.3c0.7,0,1.4,0.4,1.4,0.4l0.5-1.1c-0.9-0.5-1.4-0.5-2.1-0.5c-1.5,0-3,1.1-3,3.2v4.3
			h-2.3V68.4z M58.2,68.4h2.3v9.8h1.2v-9.8h2.9v-1.2h-2.9v-4c0-1.3,0.5-2.3,1.9-2.3c0.7,0,1.4,0.4,1.4,0.4l0.5-1.1
			c-0.9-0.5-1.4-0.5-2.1-0.5c-1.5,0-3,1.1-3,3.2v4.3h-2.3V68.4z M51.1,63.7c0,0.5,0.4,1,1,1s1-0.4,1-1s-0.4-1-1-1
			S51.1,63.1,51.1,63.7 M46.7,63.7c0,0.5,0.4,1,1,1s1-0.4,1-1s-0.4-1-1-1S46.7,63.1,46.7,63.7 M49.8,77.2c-2.7,0-4.3-2.1-4.3-4.5
			s1.5-4.5,4.3-4.5s4.3,2.1,4.3,4.5S52.6,77.2,49.8,77.2 M49.8,66.9c-3.3,0-5.6,2.6-5.6,5.8s2.3,5.8,5.6,5.8s5.6-2.6,5.6-5.8
			S53.1,66.9,49.8,66.9"/>
		<path class="st0" d="M192.2,51.7l1.1,0.4l2-5.6l-1.1-0.4L192.2,51.7L192.2,51.7z M189.9,36.9c-2.3,0-3.2,2.1-3.2,2.1v-1.8h-1.1
			v10.9h1.2v-7.9c0,0,0.9-2.1,2.8-2.1c1,0,1.5,0.3,1.5,0.3l0.5-1.2C191.6,37.2,190.9,36.9,189.9,36.9 M175.8,48.4
			c2.7,0,3.7-2.2,3.7-2.2v1.9h1.1V37.2h-1.2v7.6c0,0-1,2.4-3.4,2.4c-1.8,0-3.1-1-3.1-3.2v-6.8h-1.2v7
			C171.6,47.1,173.7,48.4,175.8,48.4 M160.1,38.3h2.4v6.8c0,1.8,1,3.2,3.1,3.2c1.1,0,2.2-0.7,2.2-0.7l-0.5-1.1c0,0-0.8,0.5-1.6,0.5
			c-1.5,0-1.9-1-1.9-2.3v-6.6h3.7v-1.2h-3.7v-3.5h-1.2v3.5h-2.4V38.3L160.1,38.3z M154.6,48.1h1.2V30h-1.2L154.6,48.1z M144.4,48.4
			c2.7,0,3.7-2.2,3.7-2.2v1.9h1.1V37.2H148v7.6c0,0-1,2.4-3.4,2.4c-1.8,0-3.1-1-3.1-3.2v-6.8h-1.2v7
			C140.3,47.1,142.3,48.4,144.4,48.4 M126.8,31.3h-1.2v16.8h1.2v-8.2l8.5,8.2h1.8l-8.8-8.6l7.6-8.2h-1.6l-7.5,8.1L126.8,31.3
			L126.8,31.3z M109.7,51.6l1.1,0.4l2-5.6l-1.2-0.4L109.7,51.6L109.7,51.6z M99.1,38.3h2.4v6.8c0,1.8,1,3.2,3.1,3.2
			c1.1,0,2.2-0.7,2.2-0.7l-0.5-1.1c0,0-0.8,0.5-1.6,0.5c-1.5,0-1.9-1-1.9-2.3v-6.6h3.7v-1.2h-3.7v-3.5h-1.2v3.5h-2.4L99.1,38.3
			L99.1,38.3z M87.2,46.1c0,0,1.4,2.3,4.7,2.3c2.1,0,4.2-1.1,4.2-3.1c0-2-1.6-2.7-3.7-3.1C90.5,41.7,89,41.3,89,40
			c0-1.1,1.1-1.9,2.6-1.9c2,0,3.1,1.2,3.1,1.2l0.8-0.9c0,0-1.3-1.5-3.9-1.5c-2.4,0-3.9,1.5-3.9,3.1c0,1.8,1.5,2.7,3.9,3.3
			c1.7,0.4,3.1,0.8,3.1,2c0,1.4-1.7,1.9-2.9,1.9c-2.6,0-3.7-1.9-3.7-1.9L87.2,46.1L87.2,46.1z M79,36.9c-2.7,0-3.7,2.3-3.7,2.3v-2
			h-1.1v10.9h1.2v-7.6c0,0,1-2.5,3.4-2.5c1.8,0,3.1,1,3.1,3.2v6.8h1.2v-7C83.1,38.2,81,36.9,79,36.9 M64.3,48.4
			c2.7,0,3.7-2.2,3.7-2.2v1.9h1.1V37.2H68v7.6c0,0-1,2.4-3.4,2.4c-1.8,0-3.1-1-3.1-3.2v-6.8h-1.2v7C60.2,47.1,62.3,48.4,64.3,48.4
			 M46.7,31.3h-1.2v16.8h1.2v-8.2l8.5,8.2H57l-8.8-8.6l7.6-8.2h-1.6l-7.5,8.1L46.7,31.3L46.7,31.3z"/>
		<path class="st0" d="M256.9,6.8c-2.4,0-3.3,2.1-3.3,2.1s-0.7-2.1-3.5-2.1c-2.3,0-3.1,1.9-3.1,1.9V7.1h-1.9v11.1h2v-7.7
			c0,0,0.7-1.8,2.4-1.8c1.4,0,2.4,0.9,2.4,2.7v6.8h2v-7.7c0,0,0.7-1.8,2.4-1.8c1.4,0,2.4,0.9,2.4,2.7v6.8h2V11
			C260.7,8.3,259.2,6.8,256.9,6.8 M235.4,18.4c2.4,0,3.4-2,3.4-2v1.7h1.9V7.1h-2v7.7c0,0-0.9,1.8-2.8,1.8c-1.5,0-2.7-0.8-2.7-2.7
			V7.1h-2v7.1C231.2,16.9,233.2,18.4,235.4,18.4 M224,3.5c0,0.7,0.6,1.4,1.4,1.4s1.4-0.6,1.4-1.4s-0.6-1.4-1.4-1.4S224,2.8,224,3.5
			 M224.3,18.1h2V7.1h-2C224.3,7.1,224.3,18.1,224.3,18.1z M219.3,6.8c-2.1,0-3.1,2-3.1,2V7.1h-1.9v11.1h2v-7.6c0,0,0.8-1.9,2.5-1.9
			c0.8,0,1.3,0.2,1.3,0.2l0.7-1.8C220.9,7.1,220.2,6.8,219.3,6.8 M201.7,11.6c0.1-1.1,1.1-3,3.5-3c2.2,0,3.4,1.8,3.4,3H201.7
			L201.7,11.6z M205.2,6.8c-3.3,0-5.5,2.6-5.5,5.8s2.4,5.8,5.8,5.8c2.9,0,4.6-2.2,4.6-2.2l-1.3-1.3c0,0-1.1,1.6-3.3,1.6
			s-3.7-1.6-3.8-3.2h8.9c0-0.3,0-0.4,0-0.6C210.6,9.1,208.3,6.8,205.2,6.8 M189,8.9h2.2V15c0,2.5,1.8,3.5,3.3,3.5
			c0.6,0,1.3-0.1,2.3-0.7l-0.7-1.7c0,0-0.6,0.5-1.3,0.5c-1.1,0-1.6-0.6-1.6-1.7v-6h3.5V7.1h-3.5V3.7h-2v3.4H189L189,8.9L189,8.9z
			 M176.9,16.1c0,0,1.6,2.3,4.8,2.3c2.1,0,4.4-1.1,4.4-3.2c0-2.3-1.8-3.1-3.9-3.5c-1.8-0.4-2.7-0.8-2.7-1.7c0-0.7,0.7-1.4,2.1-1.4
			c1.7,0,2.8,1.2,2.8,1.2l1.3-1.4c0,0-1.5-1.7-4.1-1.7c-2.5,0-4.1,1.6-4.1,3.2c0,2.1,1.7,3,4.1,3.5c1.7,0.3,2.5,0.8,2.5,1.8
			c0,0.9-1.3,1.4-2.4,1.4c-2.2,0-3.4-1.8-3.4-1.8L176.9,16.1z M170.4,3.5c0,0.7,0.6,1.4,1.4,1.4s1.4-0.6,1.4-1.4s-0.6-1.4-1.4-1.4
			S170.4,2.8,170.4,3.5 M170.7,18.1h2V7.1h-2C170.7,7.1,170.7,18.1,170.7,18.1z M161.7,6.8c-2.4,0-3.4,1.9-3.4,1.9V7.1h-1.9v11.1h2
			v-7.6c0,0,1-1.9,2.8-1.9c1.5,0,2.7,0.8,2.7,2.7v6.8h2V11C165.9,8.3,163.9,6.8,161.7,6.8 M149.2,3.5c0,0.7,0.6,1.4,1.4,1.4
			s1.4-0.6,1.4-1.4s-0.6-1.4-1.4-1.4S149.2,2.8,149.2,3.5 M149.5,18.1h2V7.1h-2C149.5,7.1,149.5,18.1,149.5,18.1z M140.8,6.8
			c-2.4,0-3.3,2.1-3.3,2.1s-0.7-2.1-3.5-2.1c-2.3,0-3.1,1.9-3.1,1.9V7.1h-1.9v11.1h2v-7.7c0,0,0.7-1.8,2.4-1.8
			c1.4,0,2.4,0.9,2.4,2.7v6.8h2v-7.7c0,0,0.7-1.8,2.4-1.8c1.4,0,2.4,0.9,2.4,2.7v6.8h2V11C144.7,8.3,143.1,6.8,140.8,6.8 M116,16.1
			c0,0,1.6,2.3,4.8,2.3c2.1,0,4.4-1.1,4.4-3.2c0-2.3-1.8-3.1-3.9-3.5c-1.8-0.4-2.7-0.8-2.7-1.7c0-0.7,0.7-1.4,2.1-1.4
			c1.7,0,2.8,1.2,2.8,1.2l1.3-1.4c0,0-1.5-1.7-4.1-1.7c-2.5,0-4.1,1.6-4.1,3.2c0,2.1,1.7,3,4.1,3.5c1.7,0.3,2.5,0.8,2.5,1.8
			c0,0.9-1.3,1.4-2.4,1.4c-2.2,0-3.4-1.8-3.4-1.8L116,16.1L116,16.1z M104.1,11.6c0.1-1.1,1.1-3,3.5-3c2.2,0,3.4,1.8,3.4,3H104.1z
			 M107.6,6.8c-3.3,0-5.5,2.6-5.5,5.8s2.4,5.8,5.8,5.8c2.9,0,4.6-2.2,4.6-2.2l-1.3-1.3c0,0-1.2,1.6-3.3,1.6s-3.7-1.6-3.8-3.2h8.9
			c0-0.3,0-0.4,0-0.6C113,9.1,110.7,6.8,107.6,6.8 M95.9,14.6c0,0-1.1,1.9-3.3,1.9s-3.7-1.8-3.7-4s1.5-4,3.7-4s3.3,1.9,3.3,1.9V14.6
			z M92.3,6.8c-3,0-5.4,2.6-5.4,5.8s2.4,5.8,5.4,5.8c2.7,0,3.7-1.9,3.7-1.9v1.6h1.8V0h-2v8.4C95.9,8.4,94.7,6.8,92.3,6.8 M79,6.8
			c-2.4,0-3.4,1.9-3.4,1.9V7.1h-1.9v11.1h2v-7.6c0,0,1-1.9,2.8-1.9c1.5,0,2.7,0.8,2.7,2.7v6.8h2V11C83.2,8.3,81.2,6.8,79,6.8
			 M63.9,18.4c2.4,0,3.4-2,3.4-2v1.7h1.9V7.1h-2v7.7c0,0-0.9,1.8-2.8,1.8c-1.5,0-2.7-0.8-2.7-2.7V7.1h-2v7.1
			C59.7,16.9,61.7,18.4,63.9,18.4 M47.2,8.6V3.3H50c1.9,0,3,1,3,2.7s-1.2,2.7-3,2.7L47.2,8.6L47.2,8.6z M50.5,16.2h-3.2v-5.8h3.2
			c2.4,0,3.5,1.3,3.5,2.9S52.9,16.2,50.5,16.2 M45.2,18.1h5.3c3.3,0,5.5-1.9,5.5-4.8c0-3.3-2.6-4.1-2.8-4.1c0.2-0.1,1.9-1,1.9-3.3
			c0-2.8-1.9-4.6-5.4-4.6h-4.4C45.2,1.3,45.2,18.1,45.2,18.1z"/>
	</g>
	<polygon class="st0" points="26.2,6.8 26.2,1.2 0,1.2 2.6,6.8 	"/>
	<polygon class="st0" points="7.9,18.2 26.2,18.2 26.2,12.5 5.3,12.5 	"/>
</g>
</svg>
