<?xml version="1.0" encoding="UTF-8"?>
<svg id="Layer_2" data-name="Layer 2" xmlns="http://www.w3.org/2000/svg" viewBox="0 0 32 32">
  <g id="Layer_2-2" data-name="Layer 2">
    <g id="Layer_1-2" data-name="Layer 1-2">
      <g>
        <g>
          <circle cx="16" cy="16" r="15.77" style="fill: #fff; stroke-width: 0px;"/>
          <path d="m16,0C7.18,0,0,7.18,0,16s7.18,16,16,16,16-7.18,16-16S24.82,0,16,0Z" style="stroke-width: 0px;"/>
        </g>
        <g>
          <circle cx="16" cy="16" r="7.26" style="fill: #fff; stroke-width: 0px;"/>
          <path d="m16,8.5c-4.13,0-7.5,3.36-7.5,7.5s3.36,7.5,7.5,7.5,7.5-3.36,7.5-7.5-3.36-7.5-7.5-7.5Zm0,14.53c-3.88,0-7.03-3.15-7.03-7.03s3.15-7.03,7.03-7.03,7.03,3.15,7.03,7.03-3.15,7.03-7.03,7.03Z" style="stroke-width: 0px;"/>
        </g>
        <g>
          <circle cx="16" cy="16" r="5.79" style="fill: #fff; stroke-width: 0px;"/>
          <path d="m16,9.98c-3.32,0-6.02,2.7-6.02,6.02s2.7,6.02,6.02,6.02,6.02-2.7,6.02-6.02-2.7-6.02-6.02-6.02Zm0,11.58c-3.06,0-5.56-2.49-5.56-5.56s2.49-5.56,5.56-5.56,5.56,2.49,5.56,5.56-2.49,5.56-5.56,5.56Z" style="stroke-width: 0px;"/>
        </g>
        <path d="m16,13.41c-1.43,0-2.59,1.16-2.59,2.59s1.16,2.59,2.59,2.59,2.59-1.16,2.59-2.59-1.16-2.59-2.59-2.59Z" style="stroke-width: 0px;"/>
        <g>
          <path d="m22.18,6.51h0s.02.01.04.02l-.03-.02Z" style="stroke-width: 0px;"/>
          <path d="m9.54,25.23h0s-.03-.02-.04-.02l.03.02Z" style="stroke-width: 0px;"/>
        </g>
        <path d="m13.48,11.9c-.42,0-.75.34-.75.75s.34.75.75.75.75-.34.75-.75-.34-.75-.75-.75Z" style="stroke-width: 0px;"/>
        <path d="m12.17,15.87c-.36-.21-.82-.09-1.03.27-.21.36-.09.82.27,1.03.36.21.82.09,1.03-.27s.09-.82-.27-1.03Z" style="stroke-width: 0px;"/>
        <path d="m13.92,19.25c-.36.21-.48.67-.27,1.03.21.36.67.48,1.03.27s.48-.67.27-1.03c-.21-.36-.67-.48-1.03-.27Z" style="stroke-width: 0px;"/>
        <path d="m18.48,18.68c-.42,0-.75.34-.75.75s.34.75.75.75.75-.34.75-.75-.34-.75-.75-.75Z" style="stroke-width: 0px;"/>
        <path d="m20.54,14.92c-.36-.21-.82-.09-1.03.27-.21.36-.09.82.27,1.03.36.21.82.09,1.03-.27.21-.36.09-.82-.27-1.03Z" style="stroke-width: 0px;"/>
        <path d="m17.29,11.53c-.36.21-.48.67-.27,1.03.21.36.67.48,1.03.27.36-.21.48-.67.27-1.03-.21-.36-.67-.48-1.03-.27Z" style="stroke-width: 0px;"/>
      </g>
    </g>
  </g>
</svg>