<?xml version="1.0" encoding="utf-8"?>
<!-- Generator: Adobe Illustrator 27.9.0, SVG Export Plug-In . SVG Version: 6.00 Build 0)  -->
<svg version="1.1" id="Layer_2_00000181768319563397702330000014686584969728389789_"
	 xmlns="http://www.w3.org/2000/svg" xmlns:xlink="http://www.w3.org/1999/xlink" x="0px" y="0px" viewBox="0 0 458.4 154.6"
	 style="enable-background:new 0 0 458.4 154.6;" xml:space="preserve">
<style type="text/css">
	.st0{display:none;fill:#FFFFFF;}
	.st1{fill:#FFFFFF;}
</style>
<g id="Layer_1-2">
	<path d="M53.1,143.3H2.7c-1.8-3.1-2.5-6.1-2.7-8.9l35.2-41.3H4.1c0.5-3.6,1.4-7.2,1.4-10.7h45c0.3,2.9,1,5.7,1.9,8.6l-35.9,41.6
		h37.9C54.4,136.1,53.5,139.7,53.1,143.3L53.1,143.3L53.1,143.3z M112.3,126.8c0.4,3.1-0.1,6.8-0.9,10.9c-3.4,3.1-11.5,7.2-21,7.2
		c-17,0-29-12.4-29-31.3s12.8-32.7,30.2-32.7c14.4,0,21.9,9.1,21.9,23.2c0,4.7-0.8,9.1-1.6,11.1l-38.1,0.5
		c1.3,10.9,9.1,17.7,20.2,17.7C102.2,133.4,109.1,129.6,112.3,126.8z M74.2,106.7l26.6-0.9c0.3-1.5,0.5-2.9,0.5-4.2
		c0-6.4-3.8-10.2-10.5-10.2C81.7,91.4,75.9,98.2,74.2,106.7L74.2,106.7L74.2,106.7z M158.2,97.2c-11.3-4.6-19.5,6.7-19.6,27l0,0
		c0,9.6,0.2,16.4,0.3,18.9c-4.3,0.5-8.3,0.7-12.3,0.4c-0.1-2.1-0.2-8.8-0.2-19.3v-17.8c0-9.5-1-17.7-1.8-22.2
		c3.1-1.3,6.6-2.3,10.5-3c1.2,3.8,2.7,10.2,3.3,17.8c4.3-12.6,13.7-18.1,23-18.1C161.6,85.8,160.5,91.4,158.2,97.2L158.2,97.2
		L158.2,97.2z M163.8,114.9c0-18.9,13.3-34,31.3-34c16.2,0,27.8,12.2,27.8,30c0,18.9-13.2,34-31.3,34
		C175.4,144.8,163.8,132.6,163.8,114.9z M210.4,112.5c0-11.4-6.9-19.9-16.9-19.9c-10.7,0-17.2,9.6-17.2,20.7s6.6,19.9,16.8,19.9
		S210.4,123.6,210.4,112.5L210.4,112.5L210.4,112.5z"/>
	<path d="M272.5,117.9c10.3,2,14.6,7,14.6,14.3c0,12.2-12.4,22.3-31.8,22.3c-15.4,0-26.6-6.2-26.6-15.6c0-8.2,7.3-13.6,15.8-15.9
		c-4.7-2.4-7.4-6.1-7.4-10.7c0-3.7,1.8-6.7,4.6-8.9c-6.6-3.4-10.6-9.4-10.6-16.9c0-13.1,12.1-21.2,26.4-21.2c3.7,0,7.1,0.5,10.1,1.5
		H288c0,3.1-0.9,6.2-1.3,9.2l-8.8-2.4c2.6,3.2,4.1,7.2,4.1,11.8c0,13.1-12.1,21.2-26.4,21.2c-2.6,0-5-0.2-7.3-0.7
		c-0.5,0.8-0.8,1.6-0.8,2.6c0,2.6,1.9,5.1,10.2,6.7L272.5,117.9L272.5,117.9L272.5,117.9z M275.5,134.6c0-2.8-1.9-4.9-9.2-6.3
		l-11.5-2.2c-7.9,1.6-14.6,5.4-14.6,10.1s7.3,8.4,16.9,8.4C267.9,144.6,275.5,140.2,275.5,134.6L275.5,134.6L275.5,134.6z
		 M242.8,86.2c0,6.6,6,11,13.4,11s14.1-4.7,14.1-11.5s-6-11.1-13.3-11.1S242.8,79.3,242.8,86.2L242.8,86.2L242.8,86.2z M335.4,81.7
		c-11.3-4.6-19.5,6.7-19.6,27l0,0c0,9.6,0.2,16.4,0.3,18.9c-4.3,0.5-8.3,0.7-12.3,0.4c-0.1-2.1-0.2-8.8-0.2-19.3V90.8
		c0-9.5-1-17.7-1.8-22.2c3.1-1.3,6.6-2.3,10.5-3c1.2,3.8,2.7,10.2,3.3,17.8c4.3-12.6,13.7-18.1,23-18.1
		C338.8,70.2,337.6,75.8,335.4,81.7L335.4,81.7L335.4,81.7z M385,128.9c-1.6-3-3-7.7-3.8-13.2c-4.5,8.9-13.1,13.6-21.9,13.6
		c-9.9,0-16.6-6.1-16.6-15.9c0-12.4,10.8-20.9,31-20.9c2.6,0,5,0.1,6.7,0.3v-3.1c0-8.6-4.3-12.7-12.9-12.7c-7.3,0-15,3-19.2,6.4
		c-1-3.1-1.5-6.6-1.6-10.3c3.9-3.4,12.5-7.8,23.8-7.8c14.1,0,22.2,7.2,22.2,23.4v15.8c0,8.6,1,17.1,2.7,21.8
		C392.4,127.8,388.9,128.6,385,128.9L385,128.9z M363.1,118.5c6.6,0,14.7-5.4,16.8-17.6c-1.5-0.2-3.3-0.3-5.5-0.3
		c-13.4,0-19.6,4.6-19.6,10.6C354.8,116.1,358.6,118.5,363.1,118.5L363.1,118.5L363.1,118.5z M458.4,66.8l-14.3,36.8
		c-7.3,18.8-9,24.1-9,24.1c-3.9,0.6-8,1-12.1,0.9c0,0-2.4-5.2-9.9-24.6l-14.4-36.8c4.5-0.3,9-0.8,13.4-1.4l17.2,45.4l17.2-45.2
		C450.4,66.4,454.4,66.7,458.4,66.8L458.4,66.8z"/>
	<path id="_1080" class="st0" d="M42,73.3v-6.1l11.3-0.7c1.6-0.1,1.8-0.6,1.8-2.2V26.9c0-1.7-0.5-2-1.6-2.3l-10.6-2l0.8-6.2h21.6
		v47.9c0,1.8,0.1,2,1.8,2.2l9.9,0.8v6H42L42,73.3L42,73.3z M75.9,48.5c0-16.5,11.8-29.6,27.8-29.6c14.4,0,24.7,10.6,24.7,26.1
		c0,16.5-11.8,29.6-27.8,29.6C86.3,74.6,75.9,64,75.9,48.5C75.9,48.5,75.9,48.5,75.9,48.5z M102,64.4c9.5,0,15.4-8.3,15.4-18
		s-6.1-17.4-15.1-17.4c-9.5,0-15.3,8.4-15.3,18S92.9,64.4,102,64.4L102,64.4z M182.4,53.3c0,13.5-11.6,21.3-26.6,21.3
		s-23.9-7.6-23.9-18.3c0-9.9,8-15.6,14.3-18.5c-6.3-3-11.3-7.7-11.3-17.1c0-12.5,9.3-20.7,23.2-20.7c13,0,21.2,7.4,21.2,17.3
		s-7.5,14.7-12,17C175.3,37.4,182.4,42.1,182.4,53.3L182.4,53.3L182.4,53.3z M171.5,54.2c0-7.9-7.5-10.2-15.7-12.8
		c-0.9-0.3-1.9-0.6-2.8-0.9c-4.8,2.5-10.3,7-10.3,13.7s6,10.7,14.4,10.7S171.5,61.1,171.5,54.2L171.5,54.2L171.5,54.2z M145.7,19.8
		c0,6.5,5.9,9.1,13,11.5c4-1.7,9.8-5.2,9.8-11.9c0-6.1-5.2-9.6-11.4-9.6C150.6,9.8,145.7,13.6,145.7,19.8L145.7,19.8L145.7,19.8z
		 M186.1,48.5c0-16.5,11.8-29.6,27.8-29.6c14.4,0,24.7,10.6,24.7,26.1c0,16.5-11.8,29.6-27.8,29.6C196.4,74.6,186.1,64,186.1,48.5
		L186.1,48.5L186.1,48.5z M212.1,64.4c9.5,0,15.4-8.3,15.4-18s-6.1-17.4-15.1-17.4c-9.5,0-15.3,8.4-15.3,18S203,64.4,212.1,64.4
		L212.1,64.4L212.1,64.4z"/>
</g>
<g>
	<path class="st1" d="M66.4,73.8c-3.9,0.5-7.5,0.6-11.1,0.3c-0.1-1.9-0.2-7.9-0.2-17.3l0-23L40.6,44.2c-1.2-3.1-2.1-6.5-2.5-10.3
		l21.5-13.6l6.6,0.5l0,36.1C66.1,65.5,66.3,71.6,66.4,73.8z"/>
	<path class="st1" d="M74.8,48.5c0-17,12-30.5,28.3-30.5c14.6,0,25.1,10.9,25.1,26.9c0,17-12,30.5-28.2,30.5
		C85.3,75.4,74.8,64.4,74.8,48.5z M101.3,64.9c9.6,0,15.6-8.5,15.6-18.5c0-10.2-6.2-17.9-15.3-17.9c-9.7,0-15.5,8.6-15.5,18.5
		C86.1,57,92.1,64.9,101.3,64.9L101.3,64.9z"/>
	<path class="st1" d="M181.4,54.4c0,13.2-11.2,20.8-25.6,20.8c-14,0-23.1-7.5-23.1-17.9c0-9.7,7.7-15.2,13.8-18.1
		c-6.1-2.9-10.9-7.5-10.9-16.8c0-12.3,9-20.2,22.4-20.2c12.5,0,20.5,7.2,20.5,16.9c0,9.2-7.2,14.4-11.5,16.6
		C174.6,38.9,181.4,43.5,181.4,54.4z M171,55.3c0-7.7-7.2-10-15.1-12.5c-0.9-0.3-1.8-0.6-2.7-0.9c-4.6,2.5-10,6.8-10,13.4
		c0,6.7,5.8,10.5,13.9,10.5C165.1,65.7,171,62.1,171,55.3z M146.1,21.7c0,6.4,5.7,8.9,12.6,11.3c3.9-1.6,9.4-5.1,9.4-11.7
		c0-5.9-5-9.4-11-9.4C150.7,11.9,146.1,15.6,146.1,21.7z"/>
	<path class="st1" d="M186.3,48.5c0-17,12-30.5,28.3-30.5c14.6,0,25.1,10.9,25.1,26.9c0,17-12,30.5-28.2,30.5
		C196.8,75.4,186.3,64.4,186.3,48.5z M212.7,64.9c9.6,0,15.6-8.5,15.6-18.5c0-10.2-6.2-17.9-15.3-17.9c-9.7,0-15.5,8.6-15.5,18.5
		C197.5,57,203.5,64.9,212.7,64.9L212.7,64.9z"/>
</g>
</svg>
