<?xml version="1.0" encoding="UTF-8"?>
<svg xmlns="http://www.w3.org/2000/svg" viewBox="0 0 412.36 113.71">
  <g id="Logo">
    <g>
      <g>
        <g>
          <path d="m41.1,39.46V1.16H0c0,13.31,1.01,26.23,2.87,38.29h38.24Z" style="fill: #1d1d1b;"/>
          <path d="m41.1,51.52H5.06c6.91,32.71,20.25,57.07,36.04,62.15v-62.15Z" style="fill: #1d1d1b;"/>
        </g>
        <g>
          <path d="m53.16,39.46V1.16s41.1,0,41.1,0c0,13.31-1.01,26.23-2.87,38.29h-38.24Z" style="fill: #1d1d1b;"/>
          <path d="m53.16,51.52h36.04c-6.91,32.71-20.25,57.07-36.04,62.15v-62.15Z" style="fill: #1d1d1b;"/>
        </g>
      </g>
      <g>
        <path d="m139.35,51.04c-2.43,0-4.74-.34-6.95-1.01-2.21-.67-4.4-1.72-6.56-3.15l1.3-8.38h.32c2.08,1.56,4.15,2.65,6.2,3.28,2.06.63,3.95.94,5.68.94,5.02,0,7.53-1.86,7.53-5.59,0-1.3-.36-2.47-1.07-3.51-.71-1.04-1.98-2.06-3.8-3.05l-6.04-3.38c-3.46-1.95-5.92-4.02-7.37-6.2-1.45-2.19-2.18-4.66-2.18-7.44,0-4.2,1.41-7.51,4.22-9.94,2.81-2.42,6.58-3.64,11.3-3.64,4.29,0,8.27,1.06,11.95,3.18l-1.3,8.05h-.32c-1.39-.95-3.01-1.68-4.87-2.18-1.86-.5-3.62-.75-5.26-.75-4.37,0-6.56,1.67-6.56,5,0,1.21.38,2.32,1.14,3.31.76,1,2.24,2.1,4.45,3.31l5.33,2.92c3.33,1.82,5.76,3.82,7.27,6.01,1.51,2.19,2.27,4.8,2.27,7.83,0,4.5-1.52,8.02-4.55,10.55-3.03,2.53-7.08,3.8-12.14,3.8Z" style="fill: #1d1d1b;"/>
        <path d="m169.61,49.88c-1.56-2.16-2.74-4.64-3.54-7.44-.8-2.79-1.2-5.96-1.2-9.51v-8.12h-5.72v-7.6h5.72V7.53h8.96v9.68h7.66l-1.3,7.6h-6.36v7.4c0,3.68.51,6.88,1.53,9.61,1.02,2.73,2.44,5.26,4.25,7.6v.45h-10Z" style="fill: #1d1d1b;"/>
        <path d="m194.81,50.4c-3.16,0-5.67-.84-7.53-2.53-1.86-1.69-2.79-4.05-2.79-7.08s1.08-5.5,3.25-7.27c2.16-1.77,5.09-2.84,8.77-3.18l9.09-.91v-.06c0-1.78-.49-3.12-1.46-4.03-.97-.91-2.76-1.36-5.36-1.36-1.95,0-3.93.23-5.94.68-2.01.45-3.63.99-4.84,1.59h-.39l1.3-7.73c1.38-.56,3.09-1.05,5.13-1.46,2.03-.41,4.18-.62,6.43-.62,4.89,0,8.48,1.15,10.78,3.44,2.29,2.3,3.44,5.63,3.44,10v10.39c0,1.69.12,3.36.36,5,.24,1.65.64,3.03,1.2,4.16v.45h-8.51c-.26-.65-.5-1.46-.71-2.44-.22-.97-.35-1.87-.39-2.69h-.39c-.82,1.6-2.25,2.94-4.29,4.03-2.04,1.08-4.42,1.62-7.14,1.62Zm-1.1-10.26c0,.95.31,1.75.94,2.4.63.65,1.66.97,3.08.97,2.25,0,4.12-.66,5.62-1.98,1.49-1.32,2.24-3.06,2.24-5.23v-.78l-6.88.78c-1.73.17-3,.55-3.8,1.14-.8.58-1.2,1.48-1.2,2.69Z" style="fill: #1d1d1b;"/>
        <path d="m246.76,49.88v-4.94h-.39c-.95,1.78-2.37,3.17-4.25,4.19-1.88,1.02-4.02,1.53-6.4,1.53-2.9,0-5.43-.71-7.6-2.14-2.17-1.43-3.85-3.43-5.07-6.01-1.21-2.58-1.82-5.57-1.82-8.99s.59-6.41,1.79-8.96c1.19-2.55,2.88-4.55,5.07-5.97,2.19-1.43,4.73-2.14,7.63-2.14,2.21,0,4.22.44,6.04,1.33,1.82.89,3.2,2.09,4.16,3.6h.45V1.17h9.09v48.71h-8.7Zm-8.18-7.08c2.47,0,4.45-.85,5.94-2.57,1.49-1.71,2.24-3.95,2.24-6.72s-.75-5.05-2.24-6.72c-1.49-1.67-3.47-2.5-5.94-2.5s-4.49.82-5.94,2.47c-1.45,1.65-2.18,3.92-2.18,6.82s.72,5.06,2.18,6.72c1.45,1.67,3.43,2.5,5.94,2.5Z" style="fill: #1d1d1b;"/>
        <path d="m270.73,49.88c-1.56-2.16-2.74-4.64-3.54-7.44-.8-2.79-1.2-5.96-1.2-9.51v-8.12h-5.72v-7.6h5.72V7.53h8.96v9.68h7.66l-1.3,7.6h-6.36v7.4c0,3.68.51,6.88,1.53,9.61,1.02,2.73,2.44,5.26,4.25,7.6v.45h-10Z" style="fill: #1d1d1b;"/>
        <path d="m147.47,111.94h-11.04c-1.08-2.42-2.25-5.42-3.51-8.99-1.26-3.57-2.47-7.54-3.64-11.92-1.17-4.37-2.19-8.93-3.05-13.67-.87-4.74-1.47-9.45-1.82-14.12h9.87c.35,4.33.92,8.83,1.72,13.51.8,4.68,1.74,9.23,2.83,13.67,1.08,4.44,2.21,8.52,3.38,12.24h.46l9.87-32.99h7.27l9.87,32.99h.46c1.17-3.72,2.27-7.8,3.31-12.24,1.04-4.44,1.95-8.99,2.73-13.67.78-4.68,1.34-9.18,1.69-13.51h9.74c-.35,4.68-.95,9.38-1.82,14.12-.87,4.74-1.88,9.3-3.05,13.67-1.17,4.37-2.38,8.35-3.64,11.92-1.26,3.57-2.43,6.57-3.51,8.99h-11.04l-8.25-27.41h-.46l-8.38,27.41Z" style="fill: #1d1d1b;"/>
        <path d="m198.9,74.08c-1.73,0-3.14-.54-4.22-1.62-1.08-1.08-1.62-2.42-1.62-4.03s.54-2.99,1.62-4.03c1.08-1.04,2.49-1.56,4.22-1.56s3.14.52,4.22,1.56c1.08,1.04,1.62,2.38,1.62,4.03s-.54,2.94-1.62,4.03-2.49,1.62-4.22,1.62Zm-4.55,37.86v-32.67h9.09v32.67h-9.09Z" style="fill: #1d1d1b;"/>
        <path d="m227.22,112.72c-3.55,0-6.61-.69-9.19-2.08-2.58-1.38-4.56-3.35-5.94-5.91-1.39-2.55-2.08-5.54-2.08-8.96,0-3.59.72-6.68,2.18-9.25,1.45-2.58,3.45-4.56,6.01-5.94s5.46-2.08,8.7-2.08c4.81,0,8.55,1.47,11.24,4.42,2.68,2.94,4.03,7.01,4.03,12.21v2.01l-22.47,2.53c.61,1.99,1.69,3.4,3.25,4.22,1.56.82,3.46,1.23,5.72,1.23,2.12,0,4.24-.28,6.36-.84,2.12-.56,3.72-1.19,4.81-1.88h.45l-1.3,7.79c-1.21.65-2.9,1.23-5.07,1.75-2.17.52-4.39.78-6.69.78Zm-.52-26.95c-2.04,0-3.71.62-5.03,1.85-1.32,1.23-2.13,3.08-2.44,5.55l13.9-1.56c-.3-2.03-1.02-3.52-2.14-4.45-1.13-.93-2.55-1.4-4.29-1.4Z" style="fill: #1d1d1b;"/>
        <path d="m248.45,111.94v-32.67h8.25v5.52h.39c.82-1.9,2.18-3.43,4.06-4.58,1.88-1.15,4.08-1.72,6.59-1.72,3.81,0,6.81,1.27,8.99,3.8,2.19,2.53,3.28,6.05,3.28,10.55v19.09h-9.09v-17.92c0-5.11-2.1-7.66-6.3-7.66-2.12,0-3.83.76-5.13,2.27-1.3,1.52-1.95,3.53-1.95,6.04v17.27h-9.09Z" style="fill: #1d1d1b;"/>
      </g>
    </g>
    <rect x="312.77" y="1.16" width="1.53" height="112.55" style="fill: #1d1d1b;"/>
  </g>
  <g id="Magistratsbezeichnung">
    <g>
      <path d="m345.11,111.98v-18.65h2.39v9.08h.12l8.73-9.08h2.99v.12l-7.44,7.44c1.23,1.23,2.34,2.49,3.35,3.78,1,1.29,1.88,2.57,2.64,3.82.75,1.25,1.37,2.42,1.85,3.49h-2.71c-.6-1.29-1.45-2.77-2.55-4.44-1.1-1.67-2.49-3.37-4.17-5.11l-2.81,2.81v6.74h-2.39Z" style="fill: #1d1d1b;"/>
      <path d="m366.75,112.28c-1.76,0-3.12-.53-4.09-1.59-.97-1.06-1.45-2.55-1.45-4.45v-6.62h2.24v6.79c0,1.23.29,2.18.87,2.86s1.39,1.02,2.44,1.02,1.86-.34,2.44-1.02.87-1.63.87-2.86v-6.79h2.24v6.62c0,1.91-.48,3.39-1.44,4.45-.96,1.06-2.33,1.59-4.1,1.59Z" style="fill: #1d1d1b;"/>
      <path d="m375.75,111.98v-19.4h2.24v19.4h-2.24Z" style="fill: #1d1d1b;"/>
      <path d="m388.01,112.05h-1.27c-1.28,0-2.29-.43-3.05-1.31-.75-.87-1.13-2.04-1.13-3.52v-5.67h-2.54v-1.94h2.54v-3.86h2.24v3.86h3.56l-.35,1.94h-3.21v5.37c0,1.11.23,1.93.68,2.45.46.52,1.17.78,2.15.78h.72l-.35,1.89Z" style="fill: #1d1d1b;"/>
      <path d="m396.22,112.28c-1.76,0-3.12-.53-4.09-1.59-.97-1.06-1.45-2.55-1.45-4.45v-6.62h2.24v6.79c0,1.23.29,2.18.87,2.86s1.39,1.02,2.44,1.02,1.86-.34,2.44-1.02.87-1.63.87-2.86v-6.79h2.24v6.62c0,1.91-.48,3.39-1.44,4.45-.96,1.06-2.33,1.59-4.1,1.59Z" style="fill: #1d1d1b;"/>
      <path d="m405.22,111.98v-12.36h2.06v2.36h.12c.28-.85.74-1.5,1.38-1.96.64-.46,1.39-.7,2.25-.7.53,0,.97.1,1.32.3v2.21h-.12c-.46-.21-.95-.32-1.47-.32-1.03,0-1.84.39-2.42,1.17-.59.78-.88,1.86-.88,3.23v6.07h-2.24Z" style="fill: #1d1d1b;"/>
    </g>
  </g>
</svg>