<?xml version="1.0" encoding="UTF-8"?>
<svg id="Layer_1" data-name="Layer 1" xmlns="http://www.w3.org/2000/svg" xmlns:xlink="http://www.w3.org/1999/xlink" viewBox="0 0 545.49 190.72">
  <defs>
    <filter id="inset-shadow">
      <feOffset dx="1" dy="1"/>
      <feGaussianBlur result="offset-blur" stdDeviation="1"/>
      <feComposite in="SourceGraphic" in2="offset-blur" operator="out" result="inverse"/>
      <feFlood flood-color="black" flood-opacity=".30" result="color"/>
      <feComposite in="color" in2="inverse" operator="in" result="shadow"/>
      <feComposite in="shadow" in2="SourceGraphic"/>
    </filter>
  </defs>
  <g style="filter: url(#inset-shadow);">
    <path d="m21.72,103.42l.62-.33s2.69.62,5.21.62,3.31-1.07,3.31-2.77c0-1.16-.58-1.82-1.82-2.32l-3.31-1.32c-2.6-1.03-4.8-3.22-4.8-7.32,0-5.58,2.81-8.76,9.92-8.76,2.6,0,5.29.45,5.29.5-.12,2.69-.5,5.37-.5,5.37l-.62.33s-2.03-.41-3.76-.41c-2.52,0-3.31.95-3.31,2.56,0,1.24.83,1.82,1.49,2.11l3.22,1.32c3.51,1.49,5.21,3.56,5.21,7.52,0,5.71-2.56,8.97-9.72,8.97-2.94,0-6.12-.58-6.28-.62-.21-2.15-.17-5.46-.17-5.46Z" style="fill: #fff; stroke-width: 0px;"/>
    <path d="m52.97,109l-4.55-10.75h-.41v10.75h-7.03v-27.29h7.03v10.75h.41l4.59-10.75h7.44l-5.71,13.39,5.91,13.89h-7.69Z" style="fill: #fff; stroke-width: 0px;"/>
    <path d="m74.8,104.87h-5.46l-.7,4.13h-7.15l5.83-27.29h9.55l5.83,27.29h-7.15l-.74-4.13Zm-4.42-5.79h3.39l-.62-3.51c-.5-2.69-.74-7.03-.74-7.03h-.62s-.33,4.34-.78,7.03l-.62,3.51Z" style="fill: #fff; stroke-width: 0px;"/>
    <path d="m81.83,81.72h15.3v5.79h-4.13v21.5h-7.03v-21.5h-4.13v-5.79Z" style="fill: #fff; stroke-width: 0px;"/>
    <path d="m99.98,81.72h13.64v5.79h-6.61v4.96h5.37v4.96h-5.37v5.79h7.03v5.79h-14.06v-27.29Z" style="fill: #fff; stroke-width: 0px;"/>
    <path d="m135.12,81.22c6.86,0,8.97,4.46,8.97,13.27v1.74c0,8.81-2.11,13.27-8.97,13.27h-.66c-6.86,0-8.97-4.46-8.97-13.27v-1.74c0-8.81,2.11-13.27,8.97-13.27h.66Zm1.74,10.05c0-3.06-.7-4.26-2.07-4.26s-2.07,1.2-2.07,4.26v8.14c0,3.06.7,4.3,2.07,4.3s2.07-1.24,2.07-4.3v-8.14Z" style="fill: #fff; stroke-width: 0px;"/>
    <path d="m155.46,96.6c-.29-.83-.66-2.89-.66-2.89l-.33.04.29,3.68v11.58h-7.03v-27.29h8.1l4.51,12.4c.29.83.66,2.94.66,2.94l.33-.04-.29-3.72v-11.58h7.03v27.29h-8.1l-4.51-12.4Z" style="fill: #fff; stroke-width: 0px;"/>
    <path d="m180.02,81.72h15.3v5.79h-4.13v21.5h-7.03v-21.5h-4.13v-5.79Z" style="fill: #fff; stroke-width: 0px;"/>
    <path d="m209.74,98.25h-4.55v10.75h-7.03v-27.29h7.03v10.75h4.55v-10.75h7.03v27.29h-7.03v-10.75Z" style="fill: #fff; stroke-width: 0px;"/>
    <path d="m220.9,81.72h13.64v5.79h-6.61v4.96h5.37v4.96h-5.37v5.79h7.03v5.79h-14.06v-27.29Z" style="fill: #fff; stroke-width: 0px;"/>
    <path d="m246.91,81.72h13.64v5.79h-6.61v4.96h5.37v4.96h-5.37v5.79h7.03v5.79h-14.06v-27.29Z" style="fill: #fff; stroke-width: 0px;"/>
    <path d="m263.82,81.72h8.76c5.75,0,9.42,3.02,9.42,10.58v7.36c0,6.2-2.93,9.34-8.19,9.34h-10v-27.29Zm7.03,5.79v15.71h1.24c1.61,0,2.89-.54,2.89-3.93v-6.7c0-4.51-1.24-5.09-3.72-5.09h-.41Z" style="fill: #fff; stroke-width: 0px;"/>
    <path d="m296.1,103.55v-9.43h7.03v14.88h-3.72l-.91-1.53c-1.4,1.16-2.69,2.03-4.88,2.03-5.04,0-8.47-2.94-8.47-13.11v-1.45c0-10.79,3.84-13.73,11.37-13.73,2.69,0,5.83.74,5.83.74-.17,2.27-.58,5.29-.58,5.29l-.5.25s-2.69-.5-4.01-.5c-3.84,0-4.88,1.7-4.88,8.23v1.28c0,6.28.66,7.19,2.65,7.19.29,0,.66-.08,1.08-.17Z" style="fill: #fff; stroke-width: 0px;"/>
    <path d="m306.4,81.72h13.64v5.79h-6.62v4.96h5.37v4.96h-5.37v5.79h7.03v5.79h-14.06v-27.29Z" style="fill: #fff; stroke-width: 0px;"/>
    <path d="m341.54,81.22c6.86,0,8.97,4.46,8.97,13.27v1.74c0,8.81-2.11,13.27-8.97,13.27h-.66c-6.86,0-8.97-4.46-8.97-13.27v-1.74c0-8.81,2.11-13.27,8.97-13.27h.66Zm1.74,10.05c0-3.06-.7-4.26-2.07-4.26s-2.07,1.2-2.07,4.26v8.14c0,3.06.7,4.3,2.07,4.3s2.07-1.24,2.07-4.3v-8.14Z" style="fill: #fff; stroke-width: 0px;"/>
    <path d="m354.15,81.72h13.64v5.79h-6.62v5.37h5.37v5.38h-5.37v10.75h-7.03v-27.29Z" style="fill: #fff; stroke-width: 0px;"/>
    <path d="m379.74,81.72h8.76c5.75,0,9.43,3.02,9.43,10.58v7.36c0,6.2-2.94,9.34-8.19,9.34h-10.01v-27.29Zm7.03,5.79v15.71h1.24c1.61,0,2.89-.54,2.89-3.93v-6.7c0-4.51-1.24-5.09-3.72-5.09h-.41Z" style="fill: #fff; stroke-width: 0px;"/>
    <path d="m401.56,81.72h7.03v27.29h-7.03v-27.29Z" style="fill: #fff; stroke-width: 0px;"/>
    <path d="m412.48,103.42l.62-.33s2.69.62,5.21.62,3.31-1.07,3.31-2.77c0-1.16-.58-1.82-1.82-2.32l-3.31-1.32c-2.6-1.03-4.8-3.22-4.8-7.32,0-5.58,2.81-8.76,9.92-8.76,2.6,0,5.29.45,5.29.5-.12,2.69-.5,5.37-.5,5.37l-.62.33s-2.03-.41-3.76-.41c-2.52,0-3.31.95-3.31,2.56,0,1.24.83,1.82,1.49,2.11l3.23,1.32c3.51,1.49,5.21,3.56,5.21,7.52,0,5.71-2.56,8.97-9.72,8.97-2.93,0-6.12-.58-6.28-.62-.21-2.15-.17-5.46-.17-5.46Z" style="fill: #fff; stroke-width: 0px;"/>
    <path d="m443.4,104.87h-5.46l-.7,4.13h-7.15l5.83-27.29h9.55l5.83,27.29h-7.15l-.74-4.13Zm-4.42-5.79h3.39l-.62-3.51c-.5-2.69-.74-7.03-.74-7.03h-.62s-.33,4.34-.79,7.03l-.62,3.51Z" style="fill: #fff; stroke-width: 0px;"/>
    <path d="m453.53,103.42l.62-.33s2.69.62,5.21.62,3.31-1.07,3.31-2.77c0-1.16-.58-1.82-1.82-2.32l-3.31-1.32c-2.6-1.03-4.8-3.22-4.8-7.32,0-5.58,2.81-8.76,9.92-8.76,2.6,0,5.29.45,5.29.5-.12,2.69-.5,5.37-.5,5.37l-.62.33s-2.03-.41-3.76-.41c-2.52,0-3.31.95-3.31,2.56,0,1.24.83,1.82,1.49,2.11l3.23,1.32c3.51,1.49,5.21,3.56,5.21,7.52,0,5.71-2.56,8.97-9.72,8.97-2.93,0-6.12-.58-6.28-.62-.21-2.15-.17-5.46-.17-5.46Z" style="fill: #fff; stroke-width: 0px;"/>
    <path d="m470.28,81.72h15.3v5.79h-4.13v21.5h-7.03v-21.5h-4.13v-5.79Z" style="fill: #fff; stroke-width: 0px;"/>
    <path d="m488.42,81.72h13.64v5.79h-6.62v4.96h5.37v4.96h-5.37v5.79h7.03v5.79h-14.06v-27.29Z" style="fill: #fff; stroke-width: 0px;"/>
    <path d="m517.16,109l-3.1-9.1c-.29-.91-.7-1.24-1.41-1.24h-.29v10.34h-7.03v-27.29h9.18c6.37,0,9.01,3.22,9.01,8.31v.74c0,3.35-1.36,5.62-3.8,6.82v.17c.91.5,1.45,1.32,1.86,2.56l2.98,8.68h-7.4Zm-4.8-21.5v6.2h1.24c1.98,0,2.89-.54,2.89-2.69v-.41c0-2.27-.7-3.1-3.31-3.1h-.83Z" style="fill: #fff; stroke-width: 0px;"/>
  </g>
</svg>