<?xml version="1.0" encoding="UTF-8"?>
<svg id="Layer_1" data-name="Layer 1" xmlns="http://www.w3.org/2000/svg" xmlns:xlink="http://www.w3.org/1999/xlink" viewBox="0 0 545.49 190.72">
  <defs>
    <filter id="inset-shadow">
      <feOffset dx="1" dy="1"/>
      <feGaussianBlur result="offset-blur" stdDeviation="1"/>
      <feComposite in="SourceGraphic" in2="offset-blur" operator="out" result="inverse"/>
      <feFlood flood-color="black" flood-opacity=".30" result="color"/>
      <feComposite in="color" in2="inverse" operator="in" result="shadow"/>
      <feComposite in="shadow" in2="SourceGraphic"/>
    </filter>
  </defs>
  <g style="filter: url(#inset-shadow);">
    <path d="m60.12,58.52h15.93v6.76h-7.72v6.27h6.27v6.27h-6.27v12.55h-8.21v-31.85Z" style="fill: #fff; stroke-width: 0px;"/>
    <path d="m92.84,90.37l-3.62-10.62c-.34-1.06-.82-1.45-1.64-1.45h-.34v12.07h-8.21v-31.85h10.71c7.43,0,10.52,3.76,10.52,9.7v.87c0,3.91-1.59,6.56-4.44,7.96v.19c1.06.58,1.69,1.54,2.17,2.99l3.48,10.14h-8.64Zm-5.6-25.1v7.24h1.45c2.32,0,3.38-.63,3.38-3.14v-.48c0-2.65-.82-3.62-3.86-3.62h-.97Z" style="fill: #fff; stroke-width: 0px;"/>
    <path d="m114.59,57.94c8.01,0,10.47,5.21,10.47,15.49v2.03c0,10.28-2.46,15.49-10.47,15.49h-.77c-8.01,0-10.47-5.21-10.47-15.49v-2.03c0-10.28,2.46-15.49,10.47-15.49h.77Zm2.03,11.73c0-3.57-.82-4.97-2.41-4.97s-2.41,1.4-2.41,4.97v9.51c0,3.57.82,5.02,2.41,5.02s2.41-1.45,2.41-5.02v-9.51Z" style="fill: #fff; stroke-width: 0px;"/>
    <path d="m157.74,58.52v31.85h-8.2v-10.62l.19-7.34-.43-.05s-.82,4.01-1.35,5.94l-3.19,11.1h-3.04l-3.19-11.1c-.58-2.03-1.3-5.94-1.3-5.94l-.43.05.19,7.34v10.62h-8.21v-31.85h10.62l2.17,7.72c.82,2.9,1.5,6.52,1.5,6.52h.34s.68-3.62,1.5-6.52l2.22-7.72h10.62Z" style="fill: #fff; stroke-width: 0px;"/>
    <path d="m186.79,85.55h-6.37l-.82,4.83h-8.35l6.81-31.85h11.15l6.81,31.85h-8.35l-.87-4.83Zm-5.16-6.76h3.96l-.72-4.1c-.58-3.14-.87-8.21-.87-8.21h-.72s-.39,5.07-.92,8.21l-.72,4.1Z" style="fill: #fff; stroke-width: 0px;"/>
    <path d="m198.81,58.52h10.71c6.42,0,9.56,2.99,9.56,8.49v.39c0,3.09-.77,5.41-3.76,6.47v.19c3.76,1.06,4.73,4.05,4.73,7.43v.39c0,4.2-1.98,8.49-8.11,8.49h-13.13v-31.85Zm8.21,6.27v6.76h1.93c1.3,0,1.93-.87,1.93-2.65v-1.06c0-1.93-.68-3.04-2.41-3.04h-1.45Zm0,12.55v6.76h2.9c1.3,0,1.93-.87,1.93-2.65v-1.45c0-1.79-1.01-2.65-2.9-2.65h-1.93Z" style="fill: #fff; stroke-width: 0px;"/>
    <path d="m223.14,83.86l.72-.39s3.14.72,6.08.72,3.86-1.25,3.86-3.23c0-1.35-.68-2.12-2.12-2.7l-3.86-1.54c-3.04-1.21-5.6-3.76-5.6-8.54,0-6.52,3.28-10.23,11.58-10.23,3.04,0,6.18.53,6.18.58-.15,3.14-.58,6.27-.58,6.27l-.72.39s-2.37-.48-4.39-.48c-2.94,0-3.86,1.11-3.86,2.99,0,1.45.96,2.12,1.74,2.46l3.76,1.54c4.1,1.74,6.08,4.15,6.08,8.78,0,6.66-2.99,10.47-11.34,10.47-3.43,0-7.14-.68-7.34-.72-.24-2.51-.19-6.37-.19-6.37Z" style="fill: #fff; stroke-width: 0px;"/>
    <path d="m256.08,57.94c8.01,0,10.47,5.21,10.47,15.49v2.03c0,10.28-2.46,15.49-10.47,15.49h-.77c-8.01,0-10.47-5.21-10.47-15.49v-2.03c0-10.28,2.46-15.49,10.47-15.49h.77Zm2.03,11.73c0-3.57-.82-4.97-2.41-4.97s-2.41,1.4-2.41,4.97v9.51c0,3.57.82,5.02,2.41,5.02s2.41-1.45,2.41-5.02v-9.51Z" style="fill: #fff; stroke-width: 0px;"/>
    <path d="m270.27,58.52h8.21v25.1h7.24v6.76h-15.45v-31.85Z" style="fill: #fff; stroke-width: 0px;"/>
    <path d="m309.8,58.52v20.56c0,8.4-3.57,11.87-10.14,11.87h-.96c-6.56,0-10.14-3.48-10.14-11.87v-20.56h8.21v22.1c0,2.56.82,3.57,2.41,3.57s2.41-1.01,2.41-3.57v-22.1h8.21Z" style="fill: #fff; stroke-width: 0px;"/>
    <path d="m312.81,58.52h17.86v6.76h-4.83v25.1h-8.21v-25.1h-4.83v-6.76Z" style="fill: #fff; stroke-width: 0px;"/>
    <path d="m333.65,58.52h15.93v6.76h-7.72v5.79h6.27v5.79h-6.27v6.76h8.21v6.76h-16.41v-31.85Z" style="fill: #fff; stroke-width: 0px;"/>
    <path d="m362.51,58.52h17.86v6.76h-4.83v25.1h-8.21v-25.1h-4.83v-6.76Z" style="fill: #fff; stroke-width: 0px;"/>
    <path d="m397.15,90.37l-3.62-10.62c-.34-1.06-.82-1.45-1.64-1.45h-.34v12.07h-8.21v-31.85h10.71c7.43,0,10.52,3.76,10.52,9.7v.87c0,3.91-1.59,6.56-4.44,7.96v.19c1.06.58,1.69,1.54,2.17,2.99l3.47,10.14h-8.64Zm-5.6-25.1v7.24h1.45c2.32,0,3.38-.63,3.38-3.14v-.48c0-2.65-.82-3.62-3.86-3.62h-.96Z" style="fill: #fff; stroke-width: 0px;"/>
    <path d="m429.19,58.52v20.56c0,8.4-3.57,11.87-10.14,11.87h-.96c-6.56,0-10.14-3.48-10.14-11.87v-20.56h8.21v22.1c0,2.56.82,3.57,2.41,3.57s2.41-1.01,2.41-3.57v-22.1h8.21Z" style="fill: #fff; stroke-width: 0px;"/>
    <path d="m432.19,58.52h17.86v6.76h-4.83v25.1h-8.21v-25.1h-4.83v-6.76Z" style="fill: #fff; stroke-width: 0px;"/>
    <path d="m466.55,77.83h-5.31v12.55h-8.21v-31.85h8.21v12.55h5.31v-12.55h8.21v31.85h-8.21v-12.55Z" style="fill: #fff; stroke-width: 0px;"/>
    <path d="m32.86,99.52h17.86v6.76h-4.83v25.1h-8.21v-25.1h-4.83v-6.76Z" style="fill: #fff; stroke-width: 0px;"/>
    <path d="m64.32,98.94c8.01,0,10.47,5.21,10.47,15.49v2.03c0,10.28-2.46,15.49-10.47,15.49h-.77c-8.01,0-10.47-5.21-10.47-15.49v-2.03c0-10.28,2.46-15.49,10.47-15.49h.77Zm2.03,11.73c0-3.57-.82-4.97-2.41-4.97s-2.41,1.4-2.41,4.97v9.51c0,3.57.82,5.02,2.41,5.02s2.41-1.45,2.41-5.02v-9.51Z" style="fill: #fff; stroke-width: 0px;"/>
    <path d="m104.14,99.52h8.35l-5.6,31.85h-13.56l-5.6-31.85h8.35l2.56,14.48c.53,2.9,1.11,9.17,1.11,9.17h.72s.58-6.27,1.11-9.17l2.56-14.48Z" style="fill: #fff; stroke-width: 0px;"/>
    <path d="m125.34,98.94c8.01,0,10.47,5.21,10.47,15.49v2.03c0,10.28-2.46,15.49-10.47,15.49h-.77c-8.01,0-10.47-5.21-10.47-15.49v-2.03c0-10.28,2.46-15.49,10.47-15.49h.77Zm2.03,11.73c0-3.57-.82-4.97-2.41-4.97s-2.41,1.4-2.41,4.97v9.51c0,3.57.82,5.02,2.41,5.02s2.41-1.45,2.41-5.02v-9.51Z" style="fill: #fff; stroke-width: 0px;"/>
    <path d="m139.54,99.52h8.21v25.1h7.24v6.76h-15.44v-31.85Z" style="fill: #fff; stroke-width: 0px;"/>
    <path d="m172.6,126.55h-6.37l-.82,4.83h-8.35l6.81-31.85h11.15l6.81,31.85h-8.35l-.87-4.83Zm-5.16-6.76h3.96l-.72-4.1c-.58-3.14-.87-8.21-.87-8.21h-.72s-.39,5.07-.92,8.21l-.72,4.1Z" style="fill: #fff; stroke-width: 0px;"/>
    <path d="m181.36,99.52h17.86v6.76h-4.83v25.1h-8.21v-25.1h-4.83v-6.76Z" style="fill: #fff; stroke-width: 0px;"/>
    <path d="m202.19,99.52h8.21v31.85h-8.21v-31.85Z" style="fill: #fff; stroke-width: 0px;"/>
    <path d="m214.7,99.52h8.21v25.1h7.24v6.76h-15.44v-31.85Z" style="fill: #fff; stroke-width: 0px;"/>
    <path d="m233.13,99.52h15.93v6.76h-7.72v5.79h6.27v5.79h-6.27v6.76h8.2v6.76h-16.41v-31.85Z" style="fill: #fff; stroke-width: 0px;"/>
    <path d="m274.87,131.95c-7.05,0-11.97-3.33-11.97-15.06v-1.69c0-11.73,4.97-16.27,13.03-16.27,2.61,0,4.58.63,4.58.63-.19,2.65-.68,6.13-.68,6.13l-.58.29s-1.4-.29-2.7-.29c-3.48,0-5.21,2.7-5.21,9.61v1.01c0,6.61,1.69,8.88,5.16,8.88,1.3,0,3.19-.53,3.19-.53l.58.29s.58,3.33.77,5.98c0,0-2.99,1.01-6.18,1.01Z" style="fill: #fff; stroke-width: 0px;"/>
    <path d="m294.24,98.94c8.01,0,10.47,5.21,10.47,15.49v2.03c0,10.28-2.46,15.49-10.47,15.49h-.77c-8.01,0-10.47-5.21-10.47-15.49v-2.03c0-10.28,2.46-15.49,10.47-15.49h.77Zm2.03,11.73c0-3.57-.82-4.97-2.41-4.97s-2.41,1.4-2.41,4.97v9.51c0,3.57.82,5.02,2.41,5.02s2.41-1.45,2.41-5.02v-9.51Z" style="fill: #fff; stroke-width: 0px;"/>
    <path d="m317.46,116.9c-.34-.96-.77-3.38-.77-3.38l-.39.05.34,4.3v13.51h-8.21v-31.85h9.46l5.26,14.48c.34.97.77,3.43.77,3.43l.39-.05-.34-4.34v-13.51h8.21v31.85h-9.46l-5.26-14.48Z" style="fill: #fff; stroke-width: 0px;"/>
    <path d="m335.19,99.52h17.86v6.76h-4.83v25.1h-8.21v-25.1h-4.83v-6.76Z" style="fill: #fff; stroke-width: 0px;"/>
    <path d="m356.03,99.52h8.21v31.85h-8.21v-31.85Z" style="fill: #fff; stroke-width: 0px;"/>
    <path d="m377.55,116.9c-.34-.96-.77-3.38-.77-3.38l-.39.05.34,4.3v13.51h-8.21v-31.85h9.46l5.26,14.48c.34.97.77,3.43.77,3.43l.39-.05-.34-4.34v-13.51h8.21v31.85h-9.46l-5.26-14.48Z" style="fill: #fff; stroke-width: 0px;"/>
    <path d="m408.79,125v-11h8.21v17.38h-4.34l-1.06-1.79c-1.64,1.35-3.14,2.37-5.69,2.37-5.89,0-9.89-3.43-9.89-15.3v-1.69c0-12.6,4.49-16.02,13.27-16.02,3.14,0,6.81.87,6.81.87-.19,2.65-.68,6.18-.68,6.18l-.58.29s-3.14-.58-4.68-.58c-4.49,0-5.7,1.98-5.7,9.61v1.5c0,7.34.77,8.4,3.09,8.4.34,0,.77-.1,1.25-.19Z" style="fill: #fff; stroke-width: 0px;"/>
    <path d="m420.72,99.52h15.93v6.76h-7.72v5.79h6.27v5.79h-6.27v6.76h8.21v6.76h-16.41v-31.85Z" style="fill: #fff; stroke-width: 0px;"/>
    <path d="m449.35,116.9c-.34-.96-.77-3.38-.77-3.38l-.39.05.34,4.3v13.51h-8.21v-31.85h9.46l5.26,14.48c.34.97.77,3.43.77,3.43l.39-.05-.34-4.34v-13.51h8.21v31.85h-9.46l-5.26-14.48Z" style="fill: #fff; stroke-width: 0px;"/>
    <path d="m479.7,131.95c-7.05,0-11.97-3.33-11.97-15.06v-1.69c0-11.73,4.97-16.27,13.03-16.27,2.61,0,4.58.63,4.58.63-.19,2.65-.68,6.13-.68,6.13l-.58.29s-1.4-.29-2.7-.29c-3.47,0-5.21,2.7-5.21,9.61v1.01c0,6.61,1.69,8.88,5.16,8.88,1.3,0,3.19-.53,3.19-.53l.58.29s.58,3.33.77,5.98c0,0-2.99,1.01-6.18,1.01Z" style="fill: #fff; stroke-width: 0px;"/>
    <path d="m496.46,99.52l2.51,6.9c.63,1.79,1.16,6.61,1.16,6.61h.48s.53-4.83,1.16-6.56l2.56-6.95h8.74l-8.59,22.73v9.12h-8.21v-9.17l-8.59-22.68h8.78Z" style="fill: #fff; stroke-width: 0px;"/>
  </g>
</svg>